<?xml version="1.0" encoding="UTF-8"?>
<svg width="684px" height="446px" viewBox="0 0 684 446" version="1.1" xmlns="http://www.w3.org/2000/svg" xmlns:xlink="http://www.w3.org/1999/xlink">
    <!-- Generator: Sketch 42 (36781) - http://www.bohemiancoding.com/sketch -->
    <title>hero_image</title>
    <desc>Created with Sketch.</desc>
    <defs>
        <linearGradient x1="45.3385234%" y1="21.1544714%" x2="45.3385234%" y2="100%" id="linearGradient-1">
            <stop stop-color="#C5E7FF" offset="0%"></stop>
            <stop stop-color="#E2F2FE" offset="100%"></stop>
        </linearGradient>
    </defs>
    <g id="Homepage" stroke="none" stroke-width="1" fill="none" fill-rule="evenodd">
        <g id="Homepage-1280" transform="translate(-596.000000, -156.000000)">
            <g id="hero_image" transform="translate(596.000000, 156.000000)">
                <g id="Group-6-Copy-3" transform="translate(559.000000, 24.000000)" fill="#FFFFFF">
                    <path d="M19,16.5 C19,11.2532949 14.7467051,7 9.5,7 C4.25329488,7 0,11.2532949 0,16.5" id="Oval-4"></path>
                    <path d="M47,16.5 C47,7.38730163 39.6126984,0 30.5,0 C21.3873016,0 14,7.38730163 14,16.5" id="Oval-4-Copy"></path>
                </g>
                <path d="M257,338.5 C257,300.11621 288.117413,269 326.49573,269 L684,269 L684,408 L257,408 L257,338.5 Z" id="Rectangle-2-Copy-2" fill="#00699B"></path>
                <path d="M403,408 C403,399.715729 409.720517,393 418.008436,393 L684,393 L684,423 L403,423 L403,408 Z" id="Rectangle-2-Copy" fill="#01537A"></path>
                <polygon id="Rectangle-6" fill="url(#linearGradient-1)" points="450 151 513.847482 151 513.847482 53.8440649 562.156203 53.8440649 562.156203 121.967874 596.74877 121.967874 596.74877 25.0150831 625.828342 25.0150831 625.828342 0.987860656 668.218854 0.987860656 684 0.987860656 684 151 684 269 352.956253 269 352.956253 151 385.646796 151 416.514395 127.139213"></polygon>
                <path d="M181.5,408 L137,408 C137,391.919189 150.2076,378.883117 166.5,378.883117 C170.641234,378.883117 174.583164,379.725358 178.15955,381.245758 C185.135712,374.301082 194.808961,370 205.5,370 C226.762963,370 244,387.01318 244,408 L181.5,408 Z" id="Combined-Shape" fill="#5A94C3"></path>
                <g id="Group-2" transform="translate(217.000000, 290.000000)">
                    <polygon id="Rectangle-3" fill="#42A5F5" points="0 53.2995312 35 14 70 52.2995312 70 117.299531 0 117.299531"></polygon>
                    <rect id="Rectangle" fill="#13324B" x="24" y="81" width="21" height="36"></rect>
                    <polygon id="Rectangle-Copy-3" fill="#13324B" points="34.5 40.5038294 45 53 24 53"></polygon>
                    <rect id="Rectangle-3-Copy" fill="#88CAFF" x="70" y="53" width="99" height="64"></rect>
                    <rect id="Rectangle-Copy-2" fill="#42A5F5" x="75" y="63" width="13.4444444" height="3"></rect>
                    <rect id="Rectangle-Copy-4" fill="#BDE2FF" x="72" y="69" width="13.4444444" height="3"></rect>
                    <g id="Group-3" transform="translate(138.500000, 86.500000) scale(1, -1) translate(-138.500000, -86.500000) translate(108.000000, 63.000000)">
                        <rect id="Rectangle-Copy-5" fill="#42A5F5" x="47" y="38" width="13.4444444" height="3"></rect>
                        <rect id="Rectangle-Copy-8" fill="#42A5F5" x="0" y="0" width="13.4444444" height="3"></rect>
                        <rect id="Rectangle-Copy-6" fill="#BDE2FF" x="36" y="44" width="13.4444444" height="3"></rect>
                        <rect id="Rectangle-Copy-7" fill="#BDE2FF" x="29" y="3" width="13.4444444" height="3"></rect>
                    </g>
                    <g id="Group" transform="translate(94.000000, 72.000000)" fill="#13324B">
                        <rect id="Rectangle-Copy" x="2.61538462" y="0" width="16.9615385" height="22.0909091"></rect>
                        <rect id="Rectangle-Copy-2" x="0" y="22" width="22" height="4.90909091"></rect>
                    </g>
                    <g id="Group-Copy" transform="translate(126.000000, 72.000000)" fill="#13324B">
                        <rect id="Rectangle-Copy" x="2.61538462" y="0" width="16.9615385" height="22.0909091"></rect>
                        <rect id="Rectangle-Copy-2" x="0" y="22" width="22" height="4.90909091"></rect>
                    </g>
                    <polygon id="Rectangle-3-Copy-2" fill="#4B7FAF" points="34.8785268 13.8856265 133.878527 13.8856265 169 53 70 53"></polygon>
                    <g id="Group-Copy-2" transform="translate(126.000000, 13.500000) scale(1, -1) translate(-126.000000, -13.500000) translate(115.000000, 0.000000)">
                        <rect id="Rectangle-Copy" fill="#7BACD8" x="2.61538462" y="0" width="16.9615385" height="22.0909091"></rect>
                        <rect id="Rectangle-Copy-2" fill="#A2D2FF" x="0" y="22" width="22" height="4.90909091"></rect>
                    </g>
                </g>
                <g id="Group-4-Copy-2" transform="translate(339.000000, 252.000000)" fill="#5A94C3">
                    <path d="M18.36963,16.7966507 L0,16.7966507 C0,9.6886571 5.45210615,3.92648978 12.1776199,3.92648978 C13.8871241,3.92648978 15.5143554,4.29877456 16.9906899,4.97081762 C19.8704542,1.90115203 23.8635781,0 28.2768462,0 C37.0542117,0 44.1696722,7.52011668 44.1696722,16.7966507 L18.36963,16.7966507 Z" id="Combined-Shape-Copy"></path>
                    <path d="M33.4807411,16.7966507 L15.1111111,16.7966507 C15.1111111,9.6886571 20.5632173,3.92648978 27.288731,3.92648978 C28.9982352,3.92648978 30.6254665,4.29877456 32.101801,4.97081762 C34.9815653,1.90115203 38.9746892,0 43.3879573,0 C52.1653228,0 59.2807833,7.52011668 59.2807833,16.7966507 L33.4807411,16.7966507 Z" id="Combined-Shape-Copy-2"></path>
                    <path d="M71.7093744,16.7966507 C71.7093744,9.6886571 66.2572682,3.92648978 59.5317545,3.92648978 C52.8062407,3.92648978 47.3541346,9.6886571 47.3541346,16.7966507" id="Combined-Shape-Copy-3"></path>
                </g>
                <g id="Group-6-Copy-4" transform="translate(582.000000, 89.000000)" fill="#FFFFFF">
                    <path d="M19,16.5 C19,11.2532949 14.7467051,7 9.5,7 C4.25329488,7 0,11.2532949 0,16.5" id="Oval-4"></path>
                    <path d="M47,16.5 C47,7.38730163 39.6126984,0 30.5,0 C21.3873016,0 14,7.38730163 14,16.5" id="Oval-4-Copy"></path>
                </g>
                <g id="Group-2-Copy-2" transform="translate(375.000000, 165.000000)">
                    <polygon id="Rectangle-3" fill="#F4F4F4" points="0 40.2995312 35 1 70 39.2995312 70 104 0 104"></polygon>
                    <rect id="Rectangle" fill="#13324B" x="24" y="68" width="21" height="36"></rect>
                    <polygon id="Rectangle-Copy-3" fill="#13324B" points="34.5 56 45 68.4961706 24 68.4961706"></polygon>
                    <rect id="Rectangle-3-Copy" fill="#D0D8DD" x="70" y="40" width="99" height="64"></rect>
                    <rect id="Rectangle-Copy-2" fill="#96A9B4" x="75" y="50" width="13.4444444" height="3"></rect>
                    <g id="Group-3" transform="translate(153.000000, 72.000000) scale(1, -1) translate(-153.000000, -72.000000) translate(137.000000, 50.000000)">
                        <rect id="Rectangle-Copy-5" fill="#96A9B4" x="18" y="35" width="13.4444444" height="3"></rect>
                        <rect id="Rectangle-Copy-6" fill="#F4F4F4" x="7" y="41" width="13.4444444" height="3"></rect>
                        <rect id="Rectangle-Copy-7" fill="#F4F4F4" x="0" y="0" width="13.4444444" height="3"></rect>
                    </g>
                    <g id="Group" transform="translate(94.000000, 59.000000)" fill="#13324B">
                        <rect id="Rectangle-Copy" x="2.61538462" y="0" width="16.9615385" height="22.0909091"></rect>
                        <rect id="Rectangle-Copy-2" x="0" y="22" width="22" height="4.90909091"></rect>
                    </g>
                    <g id="Group-Copy" transform="translate(126.000000, 59.000000)" fill="#13324B">
                        <rect id="Rectangle-Copy" x="2.61538462" y="0" width="16.9615385" height="22.0909091"></rect>
                        <rect id="Rectangle-Copy-2" x="0" y="22" width="22" height="4.90909091"></rect>
                    </g>
                    <polygon id="Rectangle-3-Copy-2" fill="#B8C8D2" points="34.8785268 0.885626466 133.878527 0.885626466 169 40 70 40"></polygon>
                </g>
                <g id="Group-4" transform="translate(335.000000, 390.000000)" fill="#60A0D4">
                    <path d="M18.36963,16.7966507 L0,16.7966507 C0,9.6886571 5.45210615,3.92648978 12.1776199,3.92648978 C13.8871241,3.92648978 15.5143554,4.29877456 16.9906899,4.97081762 C19.8704542,1.90115203 23.8635781,0 28.2768462,0 C37.0542117,0 44.1696722,7.52011668 44.1696722,16.7966507 L18.36963,16.7966507 Z" id="Combined-Shape-Copy"></path>
                    <path d="M33.4807411,16.7966507 L15.1111111,16.7966507 C15.1111111,9.6886571 20.5632173,3.92648978 27.288731,3.92648978 C28.9982352,3.92648978 30.6254665,4.29877456 32.101801,4.97081762 C34.9815653,1.90115203 38.9746892,0 43.3879573,0 C52.1653228,0 59.2807833,7.52011668 59.2807833,16.7966507 L33.4807411,16.7966507 Z" id="Combined-Shape-Copy-2"></path>
                    <path d="M71.7093744,16.7966507 C71.7093744,9.6886571 66.2572682,3.92648978 59.5317545,3.92648978 C52.8062407,3.92648978 47.3541346,9.6886571 47.3541346,16.7966507" id="Combined-Shape-Copy-3"></path>
                </g>
                <g id="Group-4-Copy" transform="translate(554.000000, 252.000000)" fill="#5A94C3">
                    <path d="M18.36963,16.7966507 L0,16.7966507 C0,9.6886571 5.45210615,3.92648978 12.1776199,3.92648978 C13.8871241,3.92648978 15.5143554,4.29877456 16.9906899,4.97081762 C19.8704542,1.90115203 23.8635781,0 28.2768462,0 C37.0542117,0 44.1696722,7.52011668 44.1696722,16.7966507 L18.36963,16.7966507 Z" id="Combined-Shape-Copy"></path>
                    <path d="M33.4807411,16.7966507 L15.1111111,16.7966507 C15.1111111,9.6886571 20.5632173,3.92648978 27.288731,3.92648978 C28.9982352,3.92648978 30.6254665,4.29877456 32.101801,4.97081762 C34.9815653,1.90115203 38.9746892,0 43.3879573,0 C52.1653228,0 59.2807833,7.52011668 59.2807833,16.7966507 L33.4807411,16.7966507 Z" id="Combined-Shape-Copy-2"></path>
                    <path d="M71.7093744,16.7966507 C71.7093744,9.6886571 66.2572682,3.92648978 59.5317545,3.92648978 C52.8062407,3.92648978 47.3541346,9.6886571 47.3541346,16.7966507" id="Combined-Shape-Copy-3"></path>
                </g>
                <g id="Group-8-Copy-2" transform="translate(396.000000, 256.000000)">
                    <polygon id="Rectangle-7" fill="#7FC881" points="11.5 0.445417274 23 44.980198 0 44.980198"></polygon>
                    <path d="M11.8965517,33.5891089 L11.8965517,58.7079208" id="Line" stroke="#494E52" stroke-width="2" stroke-linecap="square"></path>
                    <path d="M17.6007958,35.9257426 L12.882847,41.1831683" id="Line-Copy" stroke="#494E52" stroke-width="2" stroke-linecap="square"></path>
                    <path d="M10.9102564,34.1732673 L7.96153846,37.6782178" id="Line-Copy-2" stroke="#494E52" stroke-width="2" stroke-linecap="square" transform="translate(9.435897, 35.925743) scale(1, -1) translate(-9.435897, -35.925743) "></path>
                </g>
                <g id="Group-2-Copy" transform="translate(425.000000, 289.000000)">
                    <polygon id="Rectangle-3" fill="#F5F5F5" points="0.555555556 40.2995312 52.2777778 1 104 39.2995312 104 104.299531 0.555555556 104.299531"></polygon>
                    <rect id="Rectangle" fill="#13324B" x="58" y="68" width="21" height="36"></rect>
                    <rect id="Rectangle-3-Copy" fill="#D0D8DC" x="104" y="40" width="72" height="64"></rect>
                    <g id="Group-3" transform="translate(140.500000, 70.000000) scale(-1, -1) translate(-140.500000, -70.000000) translate(110.000000, 45.000000)">
                        <rect id="Rectangle-Copy-5" fill="#96A9B4" x="47" y="41" width="13.4444444" height="3"></rect>
                        <rect id="Rectangle-Copy-8" fill="#96A9B4" x="0" y="3" width="13.4444444" height="3"></rect>
                        <rect id="Rectangle-Copy-6" fill="#F4F4F4" x="36" y="47" width="13.4444444" height="3"></rect>
                        <rect id="Rectangle-Copy-7" fill="#F4F4F4" x="34" y="0" width="13.4444444" height="3"></rect>
                    </g>
                    <rect id="Rectangle-Copy" fill="#13324B" x="115.615385" y="59" width="16.9615385" height="22.0909091"></rect>
                    <rect id="Rectangle-Copy-2" fill="#13324B" x="113" y="81" width="22" height="4.90909091"></rect>
                    <rect id="Rectangle-Copy" fill="#13324B" x="18.6153846" y="68" width="16.9615385" height="22.0909091"></rect>
                    <rect id="Rectangle-Copy-2" fill="#13324B" x="16" y="90" width="22" height="4.90909091"></rect>
                    <rect id="Rectangle-Copy" fill="#13324B" x="147.615385" y="59" width="16.9615385" height="22.0909091"></rect>
                    <rect id="Rectangle-Copy-2" fill="#13324B" x="145" y="81" width="22" height="4.90909091"></rect>
                    <polygon id="Rectangle-3-Copy-2" fill="#B8C8D2" points="52.2798816 0.885626466 125.030383 3.00917569 176 40 103.766676 40"></polygon>
                    <circle id="Oval" fill="#13324B" cx="52" cy="35" r="10"></circle>
                </g>
                <g id="Group-4-Copy-3" transform="translate(572.000000, 377.000000)" fill="#5A94C3">
                    <path d="M18.36963,16.7966507 L0,16.7966507 C0,9.6886571 5.45210615,3.92648978 12.1776199,3.92648978 C13.8871241,3.92648978 15.5143554,4.29877456 16.9906899,4.97081762 C19.8704542,1.90115203 23.8635781,0 28.2768462,0 C37.0542117,0 44.1696722,7.52011668 44.1696722,16.7966507 L18.36963,16.7966507 Z" id="Combined-Shape-Copy"></path>
                    <path d="M40.36963,16.7966507 L22,16.7966507 C22,9.6886571 27.4521061,3.92648978 34.1776199,3.92648978 C35.8871241,3.92648978 37.5143554,4.29877456 38.9906899,4.97081762 C41.8704542,1.90115203 45.8635781,0 50.2768462,0 C59.0542117,0 66.1696722,7.52011668 66.1696722,16.7966507 L40.36963,16.7966507 Z" id="Combined-Shape-Copy-2"></path>
                </g>
                <g id="Group-38-Copy" transform="translate(625.000000, 339.000000)">
                    <circle id="Oval-5" fill="#7FC881" cx="13" cy="26" r="13"></circle>
                    <circle id="Oval-5-Copy" fill="#7FC881" cx="12.5" cy="9.5" r="9.5"></circle>
                    <g id="Group-37" transform="translate(8.000000, 25.000000)" stroke="#494E52" stroke-width="2" stroke-linecap="square">
                        <path d="M4.4137931,1.2970297 L4.4137931,27.6930693" id="Line"></path>
                        <path d="M10.3660477,3.75247525 L5.44297082,9.27722772" id="Line-Copy"></path>
                        <path d="M3.38461538,1.91089109 L0.307692308,5.59405941" id="Line-Copy-2" transform="translate(1.846154, 3.752475) scale(1, -1) translate(-1.846154, -3.752475) "></path>
                    </g>
                </g>
                <g id="Group-38-Copy-2" transform="translate(353.000000, 232.000000)">
                    <ellipse id="Oval-5" fill="#7FC881" cx="9" cy="18.1509434" rx="9" ry="9.0754717"></ellipse>
                    <ellipse id="Oval-5-Copy" fill="#7FC881" cx="8.65384615" cy="6.63207547" rx="6.57692308" ry="6.63207547"></ellipse>
                    <path d="M8.5,18.3583038 L8.5,36.7857276" id="Line" stroke="#494E52" stroke-linecap="square"></path>
                    <path d="M12.7149561,20.0724827 L9.30667211,23.9293854" id="Line-Copy" stroke="#494E52" stroke-linecap="square"></path>
                    <path d="M7.8816568,18.7868485 L5.75147929,21.3581169" id="Line-Copy-2" stroke="#494E52" stroke-linecap="square" transform="translate(6.816568, 20.072483) scale(1, -1) translate(-6.816568, -20.072483) "></path>
                </g>
                <g id="Group-7" transform="translate(600.000000, 381.000000)" fill="#73B0E1">
                    <path d="M13.9828527,12.8444976 L0,12.8444976 C0,7.40897308 4.15011065,3.00260983 9.26953157,3.00260983 C10.570796,3.00260983 11.8094347,3.28729819 12.9332117,3.80121347 C15.1252711,1.45382214 18.1648132,0 21.5241665,0 C28.2054447,0 33.6216908,5.75067746 33.6216908,12.8444976 L13.9828527,12.8444976 Z" id="Combined-Shape-Copy"></path>
                    <path d="M30.7291214,12.8444976 L16.7462687,12.8444976 C16.7462687,7.40897308 20.8963793,3.00260983 26.0158002,3.00260983 C27.3170646,3.00260983 28.5557034,3.28729819 29.6794804,3.80121347 C31.8715398,1.45382214 34.9110818,0 38.2704352,0 C44.9517134,0 50.3679595,5.75067746 50.3679595,12.8444976 L30.7291214,12.8444976 Z" id="Combined-Shape-Copy-2"></path>
                </g>
                <g id="Group-7-Copy" transform="translate(544.000000, 256.000000)" fill="#73B0E1">
                    <path d="M13.9828527,12.8444976 L0,12.8444976 C0,7.40897308 4.15011065,3.00260983 9.26953157,3.00260983 C10.570796,3.00260983 11.8094347,3.28729819 12.9332117,3.80121347 C15.1252711,1.45382214 18.1648132,0 21.5241665,0 C28.2054447,0 33.6216908,5.75067746 33.6216908,12.8444976 L13.9828527,12.8444976 Z" id="Combined-Shape-Copy"></path>
                    <path d="M30.7291214,12.8444976 L16.7462687,12.8444976 C16.7462687,7.40897308 20.8963793,3.00260983 26.0158002,3.00260983 C27.3170646,3.00260983 28.5557034,3.28729819 29.6794804,3.80121347 C31.8715398,1.45382214 34.9110818,0 38.2704352,0 C44.9517134,0 50.3679595,5.75067746 50.3679595,12.8444976 L30.7291214,12.8444976 Z" id="Combined-Shape-Copy-2"></path>
                </g>
                <path d="M13.6038679,423.652635 C19.2025022,414.455639 32.4679582,407 43.2329105,407 L684,407 L684,446 L0,446 L13.6038679,423.652635 Z" id="Rectangle-2" fill="#006899"></path>
                <g id="Group-6" transform="translate(30.000000, 274.000000)" fill="#FFFFFF">
                    <path d="M25,16.5 C25,9.59644063 19.4035594,4 12.5,4 C5.59644063,4 0,9.59644063 0,16.5" id="Oval-4"></path>
                    <path d="M57,16.5 C57,12.9101491 54.0898509,10 50.5,10 C46.9101491,10 44,12.9101491 44,16.5" id="Oval-4-Copy-2"></path>
                    <path d="M47,16.5 C47,7.38730163 39.6126984,0 30.5,0 C21.3873016,0 14,7.38730163 14,16.5" id="Oval-4-Copy"></path>
                </g>
                <g id="Group-6-Copy" transform="translate(270.500000, 194.500000) scale(-1, 1) translate(-270.500000, -194.500000) translate(245.000000, 186.000000)" fill="#FFFFFF">
                    <path d="M19,16.5 C19,11.2532949 14.7467051,7 9.5,7 C4.25329488,7 0,11.2532949 0,16.5" id="Oval-4"></path>
                    <path d="M51,16.5 C51,12.9101491 48.0898509,10 44.5,10 C40.9101491,10 38,12.9101491 38,16.5" id="Oval-4-Copy-2"></path>
                    <path d="M45,16.5 C45,7.38730163 37.6126984,0 28.5,0 C19.3873016,0 12,7.38730163 12,16.5" id="Oval-4-Copy"></path>
                </g>
                <g id="Group-6-Copy-2" transform="translate(379.000000, 97.000000)" fill="#FFFFFF">
                    <path d="M19,16.5 C19,11.2532949 14.7467051,7 9.5,7 C4.25329488,7 0,11.2532949 0,16.5" id="Oval-4"></path>
                    <path d="M47,16.5 C47,7.38730163 39.6126984,0 30.5,0 C21.3873016,0 14,7.38730163 14,16.5" id="Oval-4-Copy"></path>
                </g>
                <g id="Group-8" transform="translate(184.000000, 344.000000)">
                    <polygon id="Rectangle-7" fill="#7FC881" points="14.5 0.5662084 29 57.1782178 0 57.1782178"></polygon>
                    <path d="M15,42.6980198 L15,74.6287129" id="Line" stroke="#494E52" stroke-width="2" stroke-linecap="square"></path>
                    <path d="M22.1923077,45.6683168 L16.2435897,52.3514851" id="Line-Copy" stroke="#494E52" stroke-width="2" stroke-linecap="square"></path>
                    <path d="M13.7564103,43.4405941 L10.0384615,47.8960396" id="Line-Copy-2" stroke="#494E52" stroke-width="2" stroke-linecap="square" transform="translate(11.897436, 45.668317) scale(1, -1) translate(-11.897436, -45.668317) "></path>
                </g>
                <path d="M562.5,281.5 L618.5,281.5" id="Line" stroke="#08597F" stroke-width="5" stroke-linecap="round"></path>
                <path d="M44.5,421.5 L100.5,421.5" id="Line-Copy-8" stroke="#08597F" stroke-width="5" stroke-linecap="round"></path>
                <path d="M149.5,428.5 L170.5,428.5" id="Line-Copy-9" stroke="#08597F" stroke-width="5" stroke-linecap="round"></path>
                <path d="M534.5,421.5 L590.5,421.5" id="Line-Copy-10" stroke="#08597F" stroke-width="5" stroke-linecap="round"></path>
                <path d="M625.5,302.5 L647.5,302.5" id="Line-Copy-4" stroke="#08597F" stroke-width="5" stroke-linecap="round"></path>
                <path d="M426.5,281.5 L441.5,281.5" id="Line-Copy-3" stroke="#08597F" stroke-width="5" stroke-linecap="round"></path>
                <g id="Group-8-Copy-3" transform="translate(646.500000, 292.500000) scale(-1, 1) translate(-646.500000, -292.500000) translate(633.000000, 258.000000)">
                    <polygon id="Rectangle-7" fill="#7FC881" points="13.5 0.5200729 27 52.5192519 0 52.5192519"></polygon>
                    <path d="M13.9655172,39.2189219 L13.9655172,68.5478548" id="Line" stroke="#494E52" stroke-width="2" stroke-linecap="square"></path>
                    <path d="M20.6618037,41.9471947 L15.1233422,48.0858086" id="Line-Copy" stroke="#494E52" stroke-width="2" stroke-linecap="square"></path>
                    <path d="M12.8076923,39.9009901 L9.34615385,43.9933993" id="Line-Copy-2" stroke="#494E52" stroke-width="2" stroke-linecap="square" transform="translate(11.076923, 41.947195) scale(1, -1) translate(-11.076923, -41.947195) "></path>
                </g>
                <g id="Group-38" transform="translate(556.000000, 221.000000)">
                    <circle id="Oval-5" fill="#7FC881" cx="13" cy="26" r="13"></circle>
                    <circle id="Oval-5-Copy" fill="#7FC881" cx="12.5" cy="9.5" r="9.5"></circle>
                    <g id="Group-37" transform="translate(8.000000, 25.000000)" stroke="#494E52" stroke-width="2" stroke-linecap="square">
                        <path d="M4.4137931,1.2970297 L4.4137931,27.6930693" id="Line"></path>
                        <path d="M10.3660477,3.75247525 L5.44297082,9.27722772" id="Line-Copy"></path>
                        <path d="M3.38461538,1.91089109 L0.307692308,5.59405941" id="Line-Copy-2" transform="translate(1.846154, 3.752475) scale(1, -1) translate(-1.846154, -3.752475) "></path>
                    </g>
                </g>
                <g id="Group-5" transform="translate(269.000000, 194.000000)">
                    <path d="M43,91.0008109 C43,91.0008109 55.7253986,76.5571927 58.845987,72.5485888 C71.9208807,66.5418311 81,53.3311865 81,38 C81,17.0131795 63.9868205,0 43,0 C22.0131795,0 5,17.0131795 5,38 C5,53.4423438 14.2112511,66.7332846 27.4390359,72.678105 C30.8108586,76.7658295 37.539302,91.0008109 37.539302,91.0008109 L43,91.0008109 Z" id="Oval-3-Copy" fill="#88CAFF"></path>
                    <path d="M38,91.0008109 C38,91.0008109 50.7253986,76.5571927 53.845987,72.5485888 C66.9208807,66.5418311 76,53.3311865 76,38 C76,17.0131795 58.9868205,0 38,0 C17.0131795,0 0,17.0131795 0,38 C0,53.4423438 9.2112511,66.7332846 22.4390359,72.678105 C27.2428558,78.5018667 38,91.0008109 38,91.0008109 Z" id="Oval-3-Copy" fill="#42A5F5"></path>
                    <circle id="Oval-3" fill="#FFFFFF" cx="38" cy="38" r="31"></circle>
                    <path d="M44.3410198,42.2599353 C43.8590036,41.0958808 42.6979624,40.2751192 41.3622768,40.2751192 C40.7509757,40.2751192 40.1798813,40.4470363 39.6948264,40.7450986 C39.2728839,40.9510755 38.7986291,41.0666844 38.2973363,41.0666844 C37.7960436,41.0666844 37.3217887,40.9510755 36.8998462,40.7450986 C36.4147913,40.4470363 35.843697,40.2751192 35.2323958,40.2751192 C33.8513186,40.2751192 32.6754638,41.1526139 32.2333539,42.379783 C32.2019613,42.5457199 32.1576687,42.7071033 32.1015567,42.862854 C32.0877964,42.9355889 32.0765146,43.0091987 32.0678023,43.0835926 L32.0124947,43.0835926 C31.5151017,44.1939004 30.3992724,44.9675178 29.1025148,44.9675178 C27.3427565,44.9675178 25.9161905,43.5428466 25.9161905,41.7854256 C25.9161905,40.0280046 27.3427565,38.6033335 29.1025148,38.6033335 C29.713816,38.6033335 30.2849103,38.7752505 30.7699652,39.0733129 C31.1919077,39.2792897 31.6661626,39.3948987 32.1674553,39.3948987 C33.7238171,39.3948987 35.0195575,38.280528 35.2982945,36.8071639 C35.7404043,35.5799948 36.9162591,34.7025001 38.2973363,34.7025001 C39.6784136,34.7025001 40.8542683,35.5799948 41.2963782,36.8071639 C41.5751152,38.280528 42.8708556,39.3948987 44.4272173,39.3948987 C44.9285101,39.3948987 45.4027649,39.2792897 45.8247074,39.0733129 C46.3097623,38.7752505 46.8808567,38.6033335 47.4921578,38.6033335 C49.2519161,38.6033335 50.6784821,40.0280046 50.6784821,41.7854256 C50.6784821,43.5428466 49.2519161,44.9675178 47.4921578,44.9675178 C46.1954002,44.9675178 45.079571,44.1939004 44.5821779,43.0835926 L44.5564725,43.0835926 C44.5530054,43.0545711 44.5491399,43.0256689 44.5448816,42.9968914 C44.4487343,42.7638561 44.3794925,42.5169179 44.3410198,42.2599353 Z M53.5365184,34.4555317 L53.5356085,34.4555317 C53.536214,34.4300027 53.5365184,34.4043993 53.5365184,34.3787248 C53.5365184,32.6213038 52.1099525,31.1966327 50.3501942,31.1966327 C49.9777814,31.1966327 49.6202911,31.2604381 49.2880861,31.3776998 L49.2880861,31.3711865 C49.0175807,31.4457466 48.732648,31.4855791 48.4383996,31.4855791 C47.275405,31.4855791 46.2579377,30.8633304 45.7016017,29.934018 L45.6901128,29.9393754 C45.683689,29.9196996 45.6770619,29.9000519 45.6702307,29.8804349 C45.5731768,29.7108847 45.4912916,29.5315596 45.4264217,29.3443037 C44.6141404,27.9202196 42.829381,27.3354843 41.3151523,28.0415807 C40.9339705,28.2193287 40.6044312,28.4627891 40.333763,28.7521427 C39.8069232,29.1369917 39.1573205,29.3641843 38.4545835,29.3641843 C37.653896,29.3641843 36.9221873,29.0692436 36.3624481,28.5822164 L36.3556191,28.5968612 C36.1320526,28.3998469 35.8768752,28.2310797 35.5930705,28.0987393 C33.9981878,27.3550333 32.1031879,28.0433311 31.3604697,29.6360954 C31.3435158,29.6724532 31.3273088,29.7089679 31.3118426,29.7456225 C30.7852268,30.7782687 29.7107076,31.4855791 28.4707674,31.4855791 C28.176519,31.4855791 27.8915863,31.4457466 27.6210809,31.3711865 L27.6210809,31.3783845 C27.2888759,31.2611229 26.9313856,31.1973174 26.5589728,31.1973174 C24.7992145,31.1973174 23.3726486,32.6219886 23.3726486,34.3794096 C23.3726486,34.4765755 23.3770094,34.5727242 23.3855462,34.6676712 L23.3656802,34.6676712 C23.256371,36.3261844 21.8747029,37.6376239 20.1863243,37.6376239 C18.426566,37.6376239 17,36.2129527 17,34.4555317 C17,32.6981108 18.426566,31.2734396 20.1863243,31.2734396 C20.4805727,31.2734396 20.7655054,31.313272 21.0360108,31.3878321 L21.0360108,31.3813189 C21.3682158,31.4985806 21.7257061,31.562386 22.0981189,31.562386 C23.8578772,31.562386 25.2844431,30.1377148 25.2844431,28.3802939 C25.2844431,28.3546194 25.2841387,28.3290159 25.2835331,28.3034869 L25.2844431,28.3034869 C25.2844431,26.546066 26.7110091,25.1213948 28.4707674,25.1213948 C29.1876997,25.1213948 29.8493293,25.3578586 30.3817225,25.7569507 C30.6459674,26.0309291 30.9641234,26.2619286 31.3298081,26.4324502 C32.9246908,27.1761562 34.8196907,26.4878584 35.5624089,24.8950941 C35.6082254,24.7968402 35.6485868,24.6974397 35.6836174,24.5972334 L35.6894047,24.599932 C36.2390576,23.6439043 37.2715246,23 38.4545835,23 C39.6353359,23 40.6660829,23.641396 41.2165419,24.5943438 C41.253061,24.700948 41.2955926,24.806666 41.3442858,24.9110889 C42.087004,26.5038532 43.9820039,27.192151 45.5768865,26.448445 C45.7644186,26.3609974 45.9394511,26.2576447 46.1011233,26.1407471 C46.6830804,25.5137909 47.5148545,25.1213948 48.4383996,25.1213948 C50.1267782,25.1213948 51.5084463,26.4328343 51.6177555,28.0913474 L51.6376215,28.0913474 C51.6290847,28.1862945 51.6247239,28.2824432 51.6247239,28.3796091 C51.6247239,30.13703 53.0512899,31.5617012 54.8110482,31.5617012 C55.1834609,31.5617012 55.5409512,31.4978958 55.8731563,31.3806341 L55.8731563,31.3878321 C56.1436617,31.313272 56.4285943,31.2734396 56.7228427,31.2734396 C58.482601,31.2734396 59.909167,32.6981108 59.909167,34.4555317 C59.909167,36.2129527 58.482601,37.6376239 56.7228427,37.6376239 C54.9630844,37.6376239 53.5365184,36.2129527 53.5365184,34.4555317 Z M38.4027031,53.2567887 C36.2769851,53.2567887 34.5537501,51.5358426 34.5537501,49.412948 C34.5537501,47.2900534 36.2769851,45.5691073 38.4027031,45.5691073 C40.5284211,45.5691073 42.251656,47.2900534 42.251656,49.412948 C42.251656,51.5358426 40.5284211,53.2567887 38.4027031,53.2567887 Z" id="Combined-Shape" fill="#42A5F5"></path>
                </g>
            </g>
        </g>
    </g>
</svg>