<?xml version="1.0" encoding="UTF-8"?>
<svg width="368px" height="304px" viewBox="0 0 368 304" version="1.1" xmlns="http://www.w3.org/2000/svg" xmlns:xlink="http://www.w3.org/1999/xlink">
    <!-- Generator: Sketch 42 (36781) - http://www.bohemiancoding.com/sketch -->
    <title>loading</title>
    <desc>Created with Sketch.</desc>
    <defs></defs>
    <g id="Homepage" stroke="none" stroke-width="1" fill="none" fill-rule="evenodd">
        <g id="Homepage-1280" transform="translate(-679.000000, -1985.000000)">
            <g id="loading" transform="translate(679.000000, 1985.000000)">
                <path d="M59.7610172,135.3623 C-18.884648,93.0279181 156.51381,-14.9360669 222.560762,1.94553789 C252.280457,9.54189352 262.942135,23.5095734 278.306481,66.4220511 C293.670828,109.334529 402.415893,98.1623634 356.299144,158.502106 C339.076964,181.035826 298.717255,196.593226 263.435346,238.836742 C228.153437,281.080258 228.456905,307.82304 178.772057,302.704237 C99.4732904,294.534446 138.406682,177.696682 59.7610172,135.3623 Z" id="Rectangle-14" fill="#F8FCFF"></path>
                <g id="Group-44" transform="translate(0.000000, 49.246106)">
                    <g id="Group-29" transform="translate(0.000000, 32.199377)">
                        <path d="M83.4786944,147.966523 L317.861183,147.966523 L317.861183,153.595684 C317.861183,156.704584 315.348339,159.224845 312.241218,159.224845 L89.0986586,159.224845 C85.9948381,159.224845 83.4786944,156.698258 83.4786944,153.595684 L83.4786944,147.966523 Z" id="Rectangle-10-Copy" fill="#A1B3BD"></path>
                        <rect id="Rectangle-10-Copy-3" fill="#A1B3BD" x="69.0304588" y="0" width="248.830724" height="147.966523"></rect>
                        <rect id="Rectangle-10-Copy-2" fill="#D0D8DC" x="67.4250993" y="0" width="248.830724" height="147.966523"></rect>
                        <rect id="Rectangle-10-Copy-2" fill="#FFFFFF" x="75.4518969" y="8.04165884" width="232.777129" height="131.883205"></rect>
                        <text id="LOADING…" font-family="ProximaNova-Semibold, Proxima Nova" font-size="24" font-weight="500" letter-spacing="0.200000003" fill="#D0D8DC">
                            <tspan x="128.992614" y="43.6574766">LOADING…</tspan>
                        </text>
                        <g id="Group-43" transform="translate(175.958869, 67.239875)">
                            <polyline id="Line" stroke="#494E52" stroke-width="3" stroke-linecap="round" stroke-linejoin="round" points="0 0 9.18191441 5.55871597 0 11.1174319"></polyline>
                            <polyline id="Line-Copy-5" stroke="#494E52" stroke-width="3" stroke-linecap="round" stroke-linejoin="round" points="31.218509 0 22.0365946 5.55871597 31.218509 11.1174319"></polyline>
                            <ellipse id="Oval-9" fill="#4A4E52" cx="15.6092545" cy="12.6615197" rx="1.53031907" ry="1.54408777"></ellipse>
                        </g>
                        <g id="Group-28" transform="translate(0.000000, 147.966523)">
                            <path d="M0,1.99978948 C0,0.895336249 0.901011614,0 2.00294882,0 L248.830724,0 L248.830724,5.62916119 C248.830724,8.73806107 246.307288,11.2583224 243.195792,11.2583224 L5.63493162,11.2583224 C2.52284482,11.2583224 0,8.73173508 0,5.62916119 L0,1.99978948 Z" id="Rectangle-10" fill="#D0D8DC"></path>
                            <path d="M112.375166,0 L136.455558,0 L136.455558,1.60833177 C136.455558,2.49658888 135.73488,3.21666354 134.838184,3.21666354 L113.99254,3.21666354 C113.099289,3.21666354 112.375166,2.50278164 112.375166,1.60833177 L112.375166,0 Z" id="Rectangle-10" fill="#A1B3BC"></path>
                        </g>
                        <g id="Group-41" transform="translate(106.899743, 54.928349)">
                            <rect id="Rectangle-13" fill="#EEEEEE" x="0" y="0" width="169.336761" height="5.68224299"></rect>
                            <rect id="Rectangle-13" fill="#42A5F5" x="0" y="0" width="41.6246787" height="5.68224299"></rect>
                        </g>
                    </g>
                    <g id="Group-40" transform="translate(263.221371, 34.993296) rotate(25.000000) translate(-263.221371, -34.993296) translate(249.721371, 21.493296)" stroke="#D0011B" stroke-width="3">
                        <g id="Group-42" transform="translate(0.000000, 0.000000)">
                            <path d="M26.4884319,10.4174455 L21.285347,10.4174455 C18.4117626,10.4174455 16.0822622,8.07956738 16.0822622,5.20872274 L16.0822622,-2.84217094e-14" id="Rectangle-12"></path>
                            <path d="M10.4061697,10.4174455 L5.20308483,10.4174455 C2.32950043,10.4174455 -3.01980663e-14,8.07956738 -3.01980663e-14,5.20872274 L-3.01980663e-14,1.63424829e-13" id="Rectangle-12" transform="translate(5.203085, 5.208723) scale(-1, 1) translate(-5.203085, -5.208723) "></path>
                            <path d="M26.4884319,26.517134 L21.285347,26.517134 C18.4117626,26.517134 16.0822622,24.1792558 16.0822622,21.3084112 L16.0822622,16.0996885" id="Rectangle-12" transform="translate(21.285347, 21.308411) scale(1, -1) translate(-21.285347, -21.308411) "></path>
                            <path d="M10.4061697,26.517134 L5.20308483,26.517134 C2.32950043,26.517134 -1.75859327e-13,24.1792558 -1.75859327e-13,21.3084112 L-1.75859327e-13,16.0996885" id="Rectangle-12" transform="translate(5.203085, 21.308411) scale(-1, -1) translate(-5.203085, -21.308411) "></path>
                        </g>
                    </g>
                    <path d="M103.289534,24.3163069 L103.936514,9.77587792 L98.9871204,9.77587792 L99.6664489,24.3163069 L103.289534,24.3163069 Z M101.477992,31.6998655 C102.901347,31.6998655 104.098259,30.5016564 104.098259,29.1091431 C104.098259,27.6842459 102.901347,26.4860368 101.477992,26.4860368 C100.054637,26.4860368 98.8900735,27.6842459 98.8900735,29.1091431 C98.8900735,30.5016564 100.054637,31.6998655 101.477992,31.6998655 Z" id="!" fill="#F6A623" transform="translate(101.494166, 20.737872) rotate(-13.000000) translate(-101.494166, -20.737872) "></path>
                    <path d="M185.578673,18.8267379 L186.400943,0.346776182 L180.110579,0.346776182 L180.973962,18.8267379 L185.578673,18.8267379 Z M183.276318,28.2107719 C185.085312,28.2107719 186.606511,26.6879243 186.606511,24.9181284 C186.606511,23.1071744 185.085312,21.5843268 183.276318,21.5843268 C181.467324,21.5843268 179.987238,23.1071744 179.987238,24.9181284 C179.987238,26.6879243 181.467324,28.2107719 183.276318,28.2107719 Z" id="!-copy" fill="#25AAA0" transform="translate(183.296875, 14.278774) rotate(9.000000) translate(-183.296875, -14.278774) "></path>
                    <path d="M211.162468,33.850379 L214.496997,32.7251628 C213.972464,32.3500907 213.672731,31.6374537 213.672731,31.0373384 C213.672731,27.6991968 220.341788,27.2491103 220.341788,21.6980435 C220.341788,18.3223947 217.456859,15.8094117 212.736066,15.8094117 C209.364071,15.8094117 206.479142,17.1596712 204.568345,19.5226254 L207.116074,22.335666 C208.352472,20.722856 210.001003,19.7101614 212.323933,19.7101614 C214.721796,19.7101614 215.883261,20.9478993 215.883261,22.4106804 C215.883261,25.5987931 209.851137,26.0488797 209.851137,30.6247591 C209.851137,31.862497 210.26327,32.9877132 211.162468,33.850379 Z M212.511266,41.6143712 C213.934997,41.6143712 215.133929,40.3766333 215.133929,38.9513594 C215.133929,37.5635927 213.934997,36.363362 212.511266,36.363362 C211.087535,36.363362 209.888603,37.5635927 209.888603,38.9513594 C209.888603,40.3766333 211.087535,41.6143712 212.511266,41.6143712 Z" id="?" fill="#1086E8" transform="translate(212.455066, 28.711891) rotate(15.000000) translate(-212.455066, -28.711891) "></path>
                    <path d="M140.860149,42.7363961 L138.136986,42.7363961 L140.145318,36.7730226 L136.673286,36.7730226 L134.698993,42.7363961 L131.97583,42.7363961 L133.984162,36.7730226 L130.546169,36.7730226 L131.295039,34.4217497 L134.767072,34.4217497 L136.809444,28.3220705 L133.337411,28.3220705 L134.052241,25.9707976 L137.592353,25.9707976 L139.566646,20.0074241 L142.289809,20.0074241 L140.315516,25.9707976 L143.753509,25.9707976 L145.727802,20.0074241 L148.450965,20.0074241 L146.442632,25.9707976 L149.914665,25.9707976 L149.233874,28.3220705 L145.693763,28.3220705 L143.617351,34.4217497 L147.225542,34.4217497 L146.476672,36.7730226 L142.834442,36.7730226 L140.860149,42.7363961 Z M140.894188,34.4217497 L142.9706,28.3220705 L139.532607,28.3220705 L137.490235,34.4217497 L140.894188,34.4217497 Z" id="#" fill="#907EFF" transform="translate(140.230417, 31.371910) rotate(-24.000000) translate(-140.230417, -31.371910) "></path>
                </g>
            </g>
        </g>
    </g>
</svg>