<?xml version="1.0" encoding="UTF-8"?>
<svg width="359px" height="346px" viewBox="0 0 359 346" version="1.1" xmlns="http://www.w3.org/2000/svg" xmlns:xlink="http://www.w3.org/1999/xlink">
    <!-- Generator: Sketch 42 (36781) - http://www.bohemiancoding.com/sketch -->
    <title>peace_of_mind</title>
    <desc>Created with Sketch.</desc>
    <defs>
        <path d="M14.2470572,103.117458 C-57.3587211,25.5141181 180.118269,-27.5716946 247.428782,16.7350534 C277.717052,36.6721281 271.895568,55.7774267 272.57089,109.650595 C273.246213,163.523764 411.414138,193.538369 336.694988,243.203794 C308.791315,261.751218 257.715756,263.589933 202.057863,297.206414 C146.399969,330.822895 136.46119,360.824896 82.9123925,335.965841 C-2.55337256,296.289913 85.8528354,180.720797 14.2470572,103.117458 Z" id="path-1"></path>
        <ellipse id="path-3" cx="97.4374813" cy="97.6273274" rx="97.4374813" ry="97.6273274"></ellipse>
        <polygon id="path-5" points="26.7874536 0.00679472592 13.3408148 16.0923236 -3.55271368e-14 0.00679472592"></polygon>
        <polygon id="path-7" points="26.7874536 0.00679472592 13.3408148 16.0923236 2.64677169e-13 0.00679472592"></polygon>
        <polygon id="path-9" points="26.7874536 0.00679472592 13.3408148 16.0923236 -2.62900812e-13 0.00679472592"></polygon>
        <polygon id="path-11" points="18.7890911 0.00476591492 9.35743234 11.2873788 -8.2600593e-13 0.00476591492"></polygon>
        <polygon id="path-13" points="22.6065753 0.00573423236 11.2586339 13.5806983 5.06261699e-13 0.00573423236"></polygon>
    </defs>
    <g id="Homepage" stroke="none" stroke-width="1" fill="none" fill-rule="evenodd">
        <g id="Homepage-1280" transform="translate(-679.000000, -2721.000000)">
            <g id="peace_of_mind" transform="translate(679.000000, 2721.000000)">
                <g id="Group-49" transform="translate(0.000000, 0.116572)">
                    <mask id="mask-2" fill="white">
                        <use xlink:href="#path-1"></use>
                    </mask>
                    <use id="Rectangle-14" fill="#494E52" xlink:href="#path-1"></use>
                    <g id="Group-50" mask="url(#mask-2)" fill="#FFFFFF">
                        <g transform="translate(152.534591, 18.084691)">
                            <polygon id="Star" points="27.983832 11.3029316 26.6566942 12.0014912 26.910155 10.5219182 25.836478 9.47407885 27.3202631 9.25821206 27.983832 7.91205212 28.6474009 9.25821206 30.131186 9.47407885 29.057509 10.5219182 29.3109698 12.0014912"></polygon>
                            <polygon id="Star-Copy" transform="translate(70.432213, 14.083187) rotate(26.000000) translate(-70.432213, -14.083187) " points="70.4322129 15.4293473 69.1050752 16.1279069 69.3585359 14.6483339 68.2848589 13.6004945 69.768644 13.3846278 70.4322129 12.0384678 71.0957818 13.3846278 72.579567 13.6004945 71.5058899 14.6483339 71.7593507 16.1279069"></polygon>
                            <polygon id="Star-Copy-3" transform="translate(138.025726, 65.936606) rotate(26.000000) translate(-138.025726, -65.936606) " points="138.025726 67.2149474 136.765448 67.8783141 137.00614 66.4732808 135.986554 65.4782307 137.395587 65.273239 138.025726 63.9948975 138.655865 65.273239 140.064898 65.4782307 139.045312 66.4732808 139.286004 67.8783141"></polygon>
                            <polygon id="Star-Copy-4" transform="translate(2.322734, 43.761784) rotate(26.000000) translate(-2.322734, -43.761784) " points="2.32273354 44.3920234 1.70140025 44.7190719 1.82006435 44.0263722 1.31739516 43.5357995 2.01206689 43.434736 2.32273354 42.804497 2.63340018 43.434736 3.32807192 43.5357995 2.82540273 44.0263722 2.94406683 44.7190719"></polygon>
                            <polygon id="Star-Copy-2" transform="translate(102.592008, 2.210290) rotate(26.000000) translate(-102.592008, -2.210290) " points="102.592008 3.28048113 101.53694 3.83583273 101.73844 2.65957916 100.884872 1.82655177 102.064474 1.65493869 102.592008 0.584747844 103.119542 1.65493869 104.299144 1.82655177 103.445576 2.65957916 103.647076 3.83583273"></polygon>
                        </g>
                    </g>
                    <g id="Group-50-Copy" mask="url(#mask-2)" fill="#FFFFFF">
                        <g transform="translate(229.301887, 87.032573)">
                            <polygon id="Star" points="27.983832 11.3029316 26.6566942 12.0014912 26.910155 10.5219182 25.836478 9.47407885 27.3202631 9.25821206 27.983832 7.91205212 28.6474009 9.25821206 30.131186 9.47407885 29.057509 10.5219182 29.3109698 12.0014912"></polygon>
                            <polygon id="Star-Copy" transform="translate(70.432213, 14.083187) rotate(26.000000) translate(-70.432213, -14.083187) " points="70.4322129 15.4293473 69.1050752 16.1279069 69.3585359 14.6483339 68.2848589 13.6004945 69.768644 13.3846278 70.4322129 12.0384678 71.0957818 13.3846278 72.579567 13.6004945 71.5058899 14.6483339 71.7593507 16.1279069"></polygon>
                            <polygon id="Star-Copy-4" transform="translate(2.322734, 43.761784) rotate(26.000000) translate(-2.322734, -43.761784) " points="2.32273354 44.3920234 1.70140025 44.7190719 1.82006435 44.0263722 1.31739516 43.5357995 2.01206689 43.434736 2.32273354 42.804497 2.63340018 43.434736 3.32807192 43.5357995 2.82540273 44.0263722 2.94406683 44.7190719"></polygon>
                            <polygon id="Star-Copy-2" transform="translate(102.592008, 2.210290) rotate(26.000000) translate(-102.592008, -2.210290) " points="102.592008 3.28048113 101.53694 3.83583273 101.73844 2.65957916 100.884872 1.82655177 102.064474 1.65493869 102.592008 0.584747844 103.119542 1.65493869 104.299144 1.82655177 103.445576 2.65957916 103.647076 3.83583273"></polygon>
                        </g>
                    </g>
                    <g id="Group-50-Copy-10" mask="url(#mask-2)" fill="#FFFFFF">
                        <g transform="translate(-35.996855, 189.889251)">
                            <polygon id="Star-Copy" transform="translate(70.432213, 14.083187) rotate(26.000000) translate(-70.432213, -14.083187) " points="70.4322129 15.4293473 69.1050752 16.1279069 69.3585359 14.6483339 68.2848589 13.6004945 69.768644 13.3846278 70.4322129 12.0384678 71.0957818 13.3846278 72.579567 13.6004945 71.5058899 14.6483339 71.7593507 16.1279069"></polygon>
                            <polygon id="Star-Copy-3" transform="translate(138.025726, 65.936606) rotate(26.000000) translate(-138.025726, -65.936606) " points="138.025726 67.2149474 136.765448 67.8783141 137.00614 66.4732808 135.986554 65.4782307 137.395587 65.273239 138.025726 63.9948975 138.655865 65.273239 140.064898 65.4782307 139.045312 66.4732808 139.286004 67.8783141"></polygon>
                            <polygon id="Star-Copy-2" transform="translate(102.592008, 2.210290) rotate(26.000000) translate(-102.592008, -2.210290) " points="102.592008 3.28048113 101.53694 3.83583273 101.73844 2.65957916 100.884872 1.82655177 102.064474 1.65493869 102.592008 0.584747844 103.119542 1.65493869 104.299144 1.82655177 103.445576 2.65957916 103.647076 3.83583273"></polygon>
                        </g>
                    </g>
                    <g id="Group-50-Copy-7" mask="url(#mask-2)" fill="#FFFFFF">
                        <g transform="translate(120.301887, 277.460912) scale(1, -1) translate(-120.301887, -277.460912) translate(49.801887, 242.960912)">
                            <polygon id="Star" points="27.983832 11.3029316 26.6566942 12.0014912 26.910155 10.5219182 25.836478 9.47407885 27.3202631 9.25821206 27.983832 7.91205212 28.6474009 9.25821206 30.131186 9.47407885 29.057509 10.5219182 29.3109698 12.0014912"></polygon>
                            <polygon id="Star-Copy" transform="translate(70.432213, 14.083187) rotate(26.000000) translate(-70.432213, -14.083187) " points="70.4322129 15.4293473 69.1050752 16.1279069 69.3585359 14.6483339 68.2848589 13.6004945 69.768644 13.3846278 70.4322129 12.0384678 71.0957818 13.3846278 72.579567 13.6004945 71.5058899 14.6483339 71.7593507 16.1279069"></polygon>
                            <polygon id="Star-Copy-3" transform="translate(138.025726, 65.936606) rotate(26.000000) translate(-138.025726, -65.936606) " points="138.025726 67.2149474 136.765448 67.8783141 137.00614 66.4732808 135.986554 65.4782307 137.395587 65.273239 138.025726 63.9948975 138.655865 65.273239 140.064898 65.4782307 139.045312 66.4732808 139.286004 67.8783141"></polygon>
                            <polygon id="Star-Copy-4" transform="translate(2.322734, 43.761784) rotate(26.000000) translate(-2.322734, -43.761784) " points="2.32273354 44.3920234 1.70140025 44.7190719 1.82006435 44.0263722 1.31739516 43.5357995 2.01206689 43.434736 2.32273354 42.804497 2.63340018 43.434736 3.32807192 43.5357995 2.82540273 44.0263722 2.94406683 44.7190719"></polygon>
                            <polygon id="Star-Copy-2" transform="translate(102.592008, 2.210290) rotate(26.000000) translate(-102.592008, -2.210290) " points="102.592008 3.28048113 101.53694 3.83583273 101.73844 2.65957916 100.884872 1.82655177 102.064474 1.65493869 102.592008 0.584747844 103.119542 1.65493869 104.299144 1.82655177 103.445576 2.65957916 103.647076 3.83583273"></polygon>
                        </g>
                    </g>
                    <g id="Group-50-Copy-8" mask="url(#mask-2)" fill="#FFFFFF">
                        <g transform="translate(190.295597, 258.245928) scale(1, -1) translate(-190.295597, -258.245928) translate(119.795597, 223.745928)">
                            <polygon id="Star" points="27.983832 11.3029316 26.6566942 12.0014912 26.910155 10.5219182 25.836478 9.47407885 27.3202631 9.25821206 27.983832 7.91205212 28.6474009 9.25821206 30.131186 9.47407885 29.057509 10.5219182 29.3109698 12.0014912"></polygon>
                            <polygon id="Star-Copy" transform="translate(70.432213, 14.083187) rotate(26.000000) translate(-70.432213, -14.083187) " points="70.4322129 15.4293473 69.1050752 16.1279069 69.3585359 14.6483339 68.2848589 13.6004945 69.768644 13.3846278 70.4322129 12.0384678 71.0957818 13.3846278 72.579567 13.6004945 71.5058899 14.6483339 71.7593507 16.1279069"></polygon>
                            <polygon id="Star-Copy-3" transform="translate(138.025726, 65.936606) rotate(26.000000) translate(-138.025726, -65.936606) " points="138.025726 67.2149474 136.765448 67.8783141 137.00614 66.4732808 135.986554 65.4782307 137.395587 65.273239 138.025726 63.9948975 138.655865 65.273239 140.064898 65.4782307 139.045312 66.4732808 139.286004 67.8783141"></polygon>
                            <polygon id="Star-Copy-4" transform="translate(2.322734, 43.761784) rotate(26.000000) translate(-2.322734, -43.761784) " points="2.32273354 44.3920234 1.70140025 44.7190719 1.82006435 44.0263722 1.31739516 43.5357995 2.01206689 43.434736 2.32273354 42.804497 2.63340018 43.434736 3.32807192 43.5357995 2.82540273 44.0263722 2.94406683 44.7190719"></polygon>
                            <polygon id="Star-Copy-2" transform="translate(102.592008, 2.210290) rotate(26.000000) translate(-102.592008, -2.210290) " points="102.592008 3.28048113 101.53694 3.83583273 101.73844 2.65957916 100.884872 1.82655177 102.064474 1.65493869 102.592008 0.584747844 103.119542 1.65493869 104.299144 1.82655177 103.445576 2.65957916 103.647076 3.83583273"></polygon>
                        </g>
                    </g>
                    <g id="Group-50-Copy-9" mask="url(#mask-2)" fill="#FFFFFF">
                        <g transform="translate(312.220126, 200.600977) scale(1, -1) translate(-312.220126, -200.600977) translate(241.720126, 166.100977)">
                            <polygon id="Star" points="27.983832 11.3029316 26.6566942 12.0014912 26.910155 10.5219182 25.836478 9.47407885 27.3202631 9.25821206 27.983832 7.91205212 28.6474009 9.25821206 30.131186 9.47407885 29.057509 10.5219182 29.3109698 12.0014912"></polygon>
                            <polygon id="Star-Copy" transform="translate(70.432213, 14.083187) rotate(26.000000) translate(-70.432213, -14.083187) " points="70.4322129 15.4293473 69.1050752 16.1279069 69.3585359 14.6483339 68.2848589 13.6004945 69.768644 13.3846278 70.4322129 12.0384678 71.0957818 13.3846278 72.579567 13.6004945 71.5058899 14.6483339 71.7593507 16.1279069"></polygon>
                            <polygon id="Star-Copy-4" transform="translate(2.322734, 43.761784) rotate(26.000000) translate(-2.322734, -43.761784) " points="2.32273354 44.3920234 1.70140025 44.7190719 1.82006435 44.0263722 1.31739516 43.5357995 2.01206689 43.434736 2.32273354 42.804497 2.63340018 43.434736 3.32807192 43.5357995 2.82540273 44.0263722 2.94406683 44.7190719"></polygon>
                            <polygon id="Star-Copy-2" transform="translate(102.592008, 2.210290) rotate(26.000000) translate(-102.592008, -2.210290) " points="102.592008 3.28048113 101.53694 3.83583273 101.73844 2.65957916 100.884872 1.82655177 102.064474 1.65493869 102.592008 0.584747844 103.119542 1.65493869 104.299144 1.82655177 103.445576 2.65957916 103.647076 3.83583273"></polygon>
                        </g>
                    </g>
                    <g id="Group-50-Copy-5" mask="url(#mask-2)" fill="#FFFFFF">
                        <g transform="translate(20.449686, 33.908795)">
                            <polygon id="Star" points="27.983832 11.3029316 26.6566942 12.0014912 26.910155 10.5219182 25.836478 9.47407885 27.3202631 9.25821206 27.983832 7.91205212 28.6474009 9.25821206 30.131186 9.47407885 29.057509 10.5219182 29.3109698 12.0014912"></polygon>
                            <polygon id="Star-Copy" transform="translate(70.432213, 14.083187) rotate(26.000000) translate(-70.432213, -14.083187) " points="70.4322129 15.4293473 69.1050752 16.1279069 69.3585359 14.6483339 68.2848589 13.6004945 69.768644 13.3846278 70.4322129 12.0384678 71.0957818 13.3846278 72.579567 13.6004945 71.5058899 14.6483339 71.7593507 16.1279069"></polygon>
                            <polygon id="Star-Copy-3" transform="translate(138.025726, 65.936606) rotate(26.000000) translate(-138.025726, -65.936606) " points="138.025726 67.2149474 136.765448 67.8783141 137.00614 66.4732808 135.986554 65.4782307 137.395587 65.273239 138.025726 63.9948975 138.655865 65.273239 140.064898 65.4782307 139.045312 66.4732808 139.286004 67.8783141"></polygon>
                            <polygon id="Star-Copy-4" transform="translate(2.322734, 43.761784) rotate(26.000000) translate(-2.322734, -43.761784) " points="2.32273354 44.3920234 1.70140025 44.7190719 1.82006435 44.0263722 1.31739516 43.5357995 2.01206689 43.434736 2.32273354 42.804497 2.63340018 43.434736 3.32807192 43.5357995 2.82540273 44.0263722 2.94406683 44.7190719"></polygon>
                            <polygon id="Star-Copy-2" transform="translate(102.592008, 2.210290) rotate(26.000000) translate(-102.592008, -2.210290) " points="102.592008 3.28048113 101.53694 3.83583273 101.73844 2.65957916 100.884872 1.82655177 102.064474 1.65493869 102.592008 0.584747844 103.119542 1.65493869 104.299144 1.82655177 103.445576 2.65957916 103.647076 3.83583273"></polygon>
                        </g>
                    </g>
                    <g id="Group-50-Copy-6" mask="url(#mask-2)" fill="#FFFFFF">
                        <g transform="translate(71.251572, 61.035831)">
                            <polygon id="Star" points="27.983832 11.3029316 26.6566942 12.0014912 26.910155 10.5219182 25.836478 9.47407885 27.3202631 9.25821206 27.983832 7.91205212 28.6474009 9.25821206 30.131186 9.47407885 29.057509 10.5219182 29.3109698 12.0014912"></polygon>
                            <polygon id="Star-Copy" transform="translate(70.432213, 14.083187) rotate(26.000000) translate(-70.432213, -14.083187) " points="70.4322129 15.4293473 69.1050752 16.1279069 69.3585359 14.6483339 68.2848589 13.6004945 69.768644 13.3846278 70.4322129 12.0384678 71.0957818 13.3846278 72.579567 13.6004945 71.5058899 14.6483339 71.7593507 16.1279069"></polygon>
                            <polygon id="Star-Copy-3" transform="translate(138.025726, 65.936606) rotate(26.000000) translate(-138.025726, -65.936606) " points="138.025726 67.2149474 136.765448 67.8783141 137.00614 66.4732808 135.986554 65.4782307 137.395587 65.273239 138.025726 63.9948975 138.655865 65.273239 140.064898 65.4782307 139.045312 66.4732808 139.286004 67.8783141"></polygon>
                            <polygon id="Star-Copy-4" transform="translate(2.322734, 43.761784) rotate(26.000000) translate(-2.322734, -43.761784) " points="2.32273354 44.3920234 1.70140025 44.7190719 1.82006435 44.0263722 1.31739516 43.5357995 2.01206689 43.434736 2.32273354 42.804497 2.63340018 43.434736 3.32807192 43.5357995 2.82540273 44.0263722 2.94406683 44.7190719"></polygon>
                            <polygon id="Star-Copy-2" transform="translate(102.592008, 2.210290) rotate(26.000000) translate(-102.592008, -2.210290) " points="102.592008 3.28048113 101.53694 3.83583273 101.73844 2.65957916 100.884872 1.82655177 102.064474 1.65493869 102.592008 0.584747844 103.119542 1.65493869 104.299144 1.82655177 103.445576 2.65957916 103.647076 3.83583273"></polygon>
                        </g>
                    </g>
                    <g id="Group-50-Copy-2" mask="url(#mask-2)" fill="#FFFFFF">
                        <g transform="translate(141.751572, 84.180782) scale(1, -1) translate(-141.751572, -84.180782) translate(71.251572, 49.680782)">
                            <polygon id="Star" points="27.983832 11.3029316 26.6566942 12.0014912 26.910155 10.5219182 25.836478 9.47407885 27.3202631 9.25821206 27.983832 7.91205212 28.6474009 9.25821206 30.131186 9.47407885 29.057509 10.5219182 29.3109698 12.0014912"></polygon>
                            <polygon id="Star-Copy" transform="translate(70.432213, 14.083187) rotate(26.000000) translate(-70.432213, -14.083187) " points="70.4322129 15.4293473 69.1050752 16.1279069 69.3585359 14.6483339 68.2848589 13.6004945 69.768644 13.3846278 70.4322129 12.0384678 71.0957818 13.3846278 72.579567 13.6004945 71.5058899 14.6483339 71.7593507 16.1279069"></polygon>
                            <polygon id="Star-Copy-3" transform="translate(138.025726, 65.936606) rotate(26.000000) translate(-138.025726, -65.936606) " points="138.025726 67.2149474 136.765448 67.8783141 137.00614 66.4732808 135.986554 65.4782307 137.395587 65.273239 138.025726 63.9948975 138.655865 65.273239 140.064898 65.4782307 139.045312 66.4732808 139.286004 67.8783141"></polygon>
                            <polygon id="Star-Copy-4" transform="translate(2.322734, 43.761784) rotate(26.000000) translate(-2.322734, -43.761784) " points="2.32273354 44.3920234 1.70140025 44.7190719 1.82006435 44.0263722 1.31739516 43.5357995 2.01206689 43.434736 2.32273354 42.804497 2.63340018 43.434736 3.32807192 43.5357995 2.82540273 44.0263722 2.94406683 44.7190719"></polygon>
                            <polygon id="Star-Copy-2" transform="translate(102.592008, 2.210290) rotate(26.000000) translate(-102.592008, -2.210290) " points="102.592008 3.28048113 101.53694 3.83583273 101.73844 2.65957916 100.884872 1.82655177 102.064474 1.65493869 102.592008 0.584747844 103.119542 1.65493869 104.299144 1.82655177 103.445576 2.65957916 103.647076 3.83583273"></polygon>
                        </g>
                    </g>
                    <g id="Group-50-Copy-3" mask="url(#mask-2)" fill="#FFFFFF">
                        <g transform="translate(39.018868, 115.828990) scale(1, -1) translate(-39.018868, -115.828990) translate(-31.481132, 81.328990)">
                            <polygon id="Star-Copy" transform="translate(70.432213, 14.083187) rotate(26.000000) translate(-70.432213, -14.083187) " points="70.4322129 15.4293473 69.1050752 16.1279069 69.3585359 14.6483339 68.2848589 13.6004945 69.768644 13.3846278 70.4322129 12.0384678 71.0957818 13.3846278 72.579567 13.6004945 71.5058899 14.6483339 71.7593507 16.1279069"></polygon>
                            <polygon id="Star-Copy-3" transform="translate(138.025726, 65.936606) rotate(26.000000) translate(-138.025726, -65.936606) " points="138.025726 67.2149474 136.765448 67.8783141 137.00614 66.4732808 135.986554 65.4782307 137.395587 65.273239 138.025726 63.9948975 138.655865 65.273239 140.064898 65.4782307 139.045312 66.4732808 139.286004 67.8783141"></polygon>
                            <polygon id="Star-Copy-2" transform="translate(102.592008, 2.210290) rotate(26.000000) translate(-102.592008, -2.210290) " points="102.592008 3.28048113 101.53694 3.83583273 101.73844 2.65957916 100.884872 1.82655177 102.064474 1.65493869 102.592008 0.584747844 103.119542 1.65493869 104.299144 1.82655177 103.445576 2.65957916 103.647076 3.83583273"></polygon>
                        </g>
                    </g>
                    <g id="Group-50-Copy-4" mask="url(#mask-2)" fill="#FFFFFF">
                        <g transform="translate(83.047170, 68.356678) scale(1, -1) translate(-83.047170, -68.356678) translate(12.547170, 33.856678)">
                            <polygon id="Star" points="27.983832 11.3029316 26.6566942 12.0014912 26.910155 10.5219182 25.836478 9.47407885 27.3202631 9.25821206 27.983832 7.91205212 28.6474009 9.25821206 30.131186 9.47407885 29.057509 10.5219182 29.3109698 12.0014912"></polygon>
                            <polygon id="Star-Copy" transform="translate(70.432213, 14.083187) rotate(26.000000) translate(-70.432213, -14.083187) " points="70.4322129 15.4293473 69.1050752 16.1279069 69.3585359 14.6483339 68.2848589 13.6004945 69.768644 13.3846278 70.4322129 12.0384678 71.0957818 13.3846278 72.579567 13.6004945 71.5058899 14.6483339 71.7593507 16.1279069"></polygon>
                            <polygon id="Star-Copy-3" transform="translate(138.025726, 65.936606) rotate(26.000000) translate(-138.025726, -65.936606) " points="138.025726 67.2149474 136.765448 67.8783141 137.00614 66.4732808 135.986554 65.4782307 137.395587 65.273239 138.025726 63.9948975 138.655865 65.273239 140.064898 65.4782307 139.045312 66.4732808 139.286004 67.8783141"></polygon>
                            <polygon id="Star-Copy-4" transform="translate(2.322734, 43.761784) rotate(26.000000) translate(-2.322734, -43.761784) " points="2.32273354 44.3920234 1.70140025 44.7190719 1.82006435 44.0263722 1.31739516 43.5357995 2.01206689 43.434736 2.32273354 42.804497 2.63340018 43.434736 3.32807192 43.5357995 2.82540273 44.0263722 2.94406683 44.7190719"></polygon>
                            <polygon id="Star-Copy-2" transform="translate(102.592008, 2.210290) rotate(26.000000) translate(-102.592008, -2.210290) " points="102.592008 3.28048113 101.53694 3.83583273 101.73844 2.65957916 100.884872 1.82655177 102.064474 1.65493869 102.592008 0.584747844 103.119542 1.65493869 104.299144 1.82655177 103.445576 2.65957916 103.647076 3.83583273"></polygon>
                        </g>
                    </g>
                </g>
                <g id="Group-12" transform="translate(35.996855, 54.370644)">
                    <g id="Group-18">
                        <g id="Oval-6-Copy" transform="translate(29.696167, 22.891925)">
                            <mask id="mask-4" fill="white">
                                <use xlink:href="#path-3"></use>
                            </mask>
                            <use id="Mask" fill="#42A5F5" xlink:href="#path-3"></use>
                            <path d="M24.2370754,160.243475 C44.4313012,160.243475 26.4479641,138.209279 24.2370754,118.955001 C22.0261867,99.7007238 39.4924817,100.587928 39.4924817,94.9852373 C39.4924817,72.9046789 72.1108578,59.1780317 53.2796014,50.4292669 C34.448345,41.6805022 32.5497588,33.6645956 24.2370754,33.6645956 C-6.2204766,33.6645956 -30.911201,58.2836164 -30.911201,88.6527175 C-30.911201,119.021819 -6.2204766,160.243475 24.2370754,160.243475 Z" id="Oval-6" fill="#7FC881" mask="url(#mask-4)"></path>
                            <path d="M170.674362,84.834781 C190.897828,84.834781 207.835945,75.6078918 205.621855,56.2268937 C203.407765,36.8458956 220.899351,37.7389386 220.899351,32.0993744 C220.899351,9.87349464 253.564957,-3.94349343 234.706434,-12.7498375 C215.84791,-21.5561816 213.946575,-29.6248442 205.621855,-29.6248442 C175.120201,-29.6248442 134.396526,3.51215716 134.396526,34.0811301 C134.396526,50.069018 159.858263,41.761702 170.674362,56.2268937 C174.597606,61.4737465 161.879484,70.9048733 159.91364,75.4073302 C157.947797,79.909787 161.40263,84.834781 170.674362,84.834781 Z" id="Oval-6" fill="#7FC881" mask="url(#mask-4)"></path>
                            <path d="M79.2847244,285.475771 C99.5081908,285.475771 116.446307,276.248882 114.232217,256.867884 C112.018127,237.486886 129.509713,238.379929 129.509713,232.740365 C129.509713,210.514485 162.17532,196.697497 143.316796,187.891153 C124.458273,179.084808 122.556937,171.016146 114.232217,171.016146 C83.7305637,171.016146 43.0068883,204.153147 43.0068883,234.72212 C43.0068883,250.710008 68.4686258,242.402692 79.2847244,256.867884 C83.2079685,262.114737 70.4898465,271.545863 68.5240029,276.04832 C66.5581593,280.550777 70.0129926,285.475771 79.2847244,285.475771 Z" id="Oval-6" fill="#FAFAFA" mask="url(#mask-4)"></path>
                            <path d="M159.596026,107.564511 L146.021944,107.564511 C141.08117,107.564511 137.084456,111.564669 137.084456,116.499114 C137.084456,121.434645 141.085906,125.433718 146.021944,125.433718 L181.905579,125.433718 C186.846353,125.433718 190.843067,121.43356 190.843067,116.499114 C190.843067,116.194573 190.827832,115.893597 190.798082,115.596905 L198.449948,115.596905 C202.842365,115.596905 206.419463,112.026443 206.419463,107.622054 C206.419463,103.226628 202.851389,99.6472031 198.449948,99.6472031 L167.565336,99.6472031 C163.192064,99.6472031 159.62702,103.186609 159.596026,107.564511 Z" id="Combined-Shape" fill="#E6E6E6" style="mix-blend-mode: multiply;" mask="url(#mask-4)"></path>
                            <path d="M14.4118855,29.8262664 L8.93996308,29.8262664 C4.0025578,29.8262664 0,25.8271931 0,20.8916628 C0,15.9572174 4.0003947,11.9570591 8.93996308,11.9570591 L22.5115548,11.9570591 C22.5425636,7.57915714 26.107608,4.03975148 30.4808798,4.03975148 L61.3654919,4.03975148 C65.7605835,4.03975148 69.3247097,7.608856 69.3349838,11.995585 C73.8804707,12.416687 77.4390977,16.2378785 77.4390977,20.8916628 C77.4390977,25.8261081 73.438703,29.8262664 68.4991346,29.8262664 L46.1861041,29.8262664 C46.1891758,29.9225757 46.1907233,30.0192704 46.1907233,30.1163273 C46.1907233,35.0507726 42.19751,39.050931 37.2526791,39.050931 L23.3453182,39.050931 C18.4089727,39.050931 14.407274,35.0518576 14.407274,30.1163273 C14.407274,30.0192711 14.4088189,29.9225764 14.4118855,29.8262664 Z" id="Combined-Shape" fill="#E6E6E6" style="mix-blend-mode: multiply;" mask="url(#mask-4)"></path>
                        </g>
                        <g id="Group-12-Copy" transform="translate(99.629404, 99.877534)">
                            <path d="M14.9417314,19.7498961 C14.9417314,19.7498961 19.3782676,26.4973654 28.2232704,26.4973654 C37.0682733,26.4973654 41.5048095,19.7498961 41.5048095,19.7498961" id="Line" stroke="#4A4E52" stroke-width="2" stroke-linecap="round"></path>
                            <g id="Group-2" fill="#4A4E52">
                                <ellipse id="Oval-5" cx="6.64076952" cy="6.5832987" rx="6.64076952" ry="6.5832987"></ellipse>
                                <ellipse id="Oval-5-Copy" cx="49.8057714" cy="6.5832987" rx="6.64076952" ry="6.5832987"></ellipse>
                            </g>
                        </g>
                        <ellipse id="Oval-7-Copy" fill="#D3D3D3" style="mix-blend-mode: multiply;" cx="156.747928" cy="119.402999" rx="4.70387841" ry="2.01987574"></ellipse>
                        <ellipse id="Oval-7-Copy-2" fill="#D3D3D3" style="mix-blend-mode: multiply;" cx="100.254343" cy="119.172669" rx="4.70387841" ry="2.01987574"></ellipse>
                        <path d="M40.0761562,47.3318562 L34.6042338,47.3318562 C29.6668285,47.3318562 25.6642707,43.3327828 25.6642707,38.3972525 C25.6642707,33.4628071 29.6646654,29.4626488 34.6042338,29.4626488 L48.1758255,29.4626488 C48.2068343,25.0847469 51.7718787,21.5453412 56.1451506,21.5453412 L87.0297626,21.5453412 C91.4248542,21.5453412 94.9889804,25.1144457 94.9992546,29.5011748 C99.5447415,29.9222767 103.103368,33.7434682 103.103368,38.3972525 C103.103368,43.3316978 99.1029738,47.3318562 94.1634054,47.3318562 L71.8503749,47.3318562 C71.8534466,47.4281655 71.854994,47.5248602 71.854994,47.621917 C71.854994,52.5563624 67.8617807,56.5565207 62.9169499,56.5565207 L49.0095889,56.5565207 C44.0732434,56.5565207 40.0715447,52.5574473 40.0715447,47.621917 C40.0715447,47.5248608 40.0730896,47.4281661 40.0761562,47.3318562 Z" id="Combined-Shape" fill="#FAFAFA"></path>
                        <path d="M194.668053,126.416684 L181.093972,126.416684 C176.153198,126.416684 172.156484,130.416843 172.156484,135.351288 C172.156484,140.286818 176.157934,144.285892 181.093972,144.285892 L216.977607,144.285892 C221.918381,144.285892 225.915094,140.285733 225.915094,135.351288 C225.915094,135.046746 225.899859,134.74577 225.87011,134.449079 L233.521976,134.449079 C237.914393,134.449079 241.49149,130.878616 241.49149,126.474228 C241.49149,122.078801 237.923417,118.499377 233.521976,118.499377 L202.637364,118.499377 C198.264092,118.499377 194.699048,122.038782 194.668053,126.416684 Z" id="Combined-Shape" fill="#FAFAFA"></path>
                        <g id="Group-16" transform="translate(189.969446, 28.299288) rotate(30.000000) translate(-189.969446, -28.299288) translate(174.969446, 4.299288)">
                            <ellipse id="Oval-7-Copy-3" fill="#D3D3D3" style="mix-blend-mode: multiply;" cx="14.7836178" cy="45.1105582" rx="5.37586104" ry="2.01987574"></ellipse>
                            <g id="Group-15" transform="translate(-0.000000, 0.000000)">
                                <path d="M14.7836178,26.2583846 L14.7836178,43.7639743" id="Line" stroke="#E6E6E6" stroke-width="2" stroke-linecap="round"></path>
                                <ellipse id="Oval-10" stroke="#494E52" stroke-width="2" fill="#42A5F5" cx="14.7836178" cy="14.8124221" rx="14.7836178" ry="14.8124221"></ellipse>
                                <g id="Group" transform="translate(1.343965, 6.732919)">
                                    <mask id="mask-6" fill="white">
                                        <use xlink:href="#path-5"></use>
                                    </mask>
                                    <g id="Mask"></g>
                                    <path d="M13.3338286,29.9507689 C5.32686337,29.9507689 -1.1640644,23.6377449 -1.1640644,15.8502351 C-1.1640644,8.0627253 5.32686337,1.74970128 13.3338286,1.74970128 C21.3407937,1.74970128 27.8317215,8.0627253 27.8317215,15.8502351 C27.8317215,23.6377449 21.3407937,29.9507689 13.3338286,29.9507689 Z M13.3338286,27.583526 C19.9965587,27.583526 25.3977687,22.3303527 25.3977687,15.8502351 C25.3977687,9.37011746 19.9965587,4.11694418 13.3338286,4.11694418 C6.6710984,4.11694418 1.26988843,9.37011746 1.26988843,15.8502351 C1.26988843,22.3303527 6.6710984,27.583526 13.3338286,27.583526 Z M13.3338286,24.0841235 C8.65822845,24.0841235 4.86790566,20.3976861 4.86790566,15.8502351 C4.86790566,11.3027841 8.65822845,7.61634674 13.3338286,7.61634674 C18.0094287,7.61634674 21.7997514,11.3027841 21.7997514,15.8502351 C21.7997514,20.3976861 18.0094287,24.0841235 13.3338286,24.0841235 Z M13.3338286,21.7168806 C16.6651936,21.7168806 19.3657986,19.0902939 19.3657986,15.8502351 C19.3657986,12.6101763 16.6651936,9.98358964 13.3338286,9.98358964 C10.0024635,9.98358964 7.30185849,12.6101763 7.30185849,15.8502351 C7.30185849,19.0902939 10.0024635,21.7168806 13.3338286,21.7168806 Z M13.3338286,18.217478 C11.9895935,18.217478 10.8998757,17.1576273 10.8998757,15.8502351 C10.8998757,14.5428429 11.9895935,13.4829922 13.3338286,13.4829922 C14.6780636,13.4829922 15.7677814,14.5428429 15.7677814,15.8502351 C15.7677814,17.1576273 14.6780636,18.217478 13.3338286,18.217478 Z" id="Combined-Shape" fill="#FFFFFF" mask="url(#mask-6)"></path>
                                </g>
                            </g>
                        </g>
                        <g id="Group-16" transform="translate(45.826068, 66.119274) rotate(305.000000) translate(-45.826068, -66.119274) translate(30.826068, 42.119274)">
                            <ellipse id="Oval-7-Copy-3" fill="#D3D3D3" style="mix-blend-mode: multiply;" cx="14.7836178" cy="45.1105582" rx="5.37586104" ry="2.01987574"></ellipse>
                            <g id="Group-15" transform="translate(0.000000, 0.000000)">
                                <path d="M14.7836178,26.2583846 L14.7836178,43.7639743" id="Line" stroke="#E6E6E6" stroke-width="2" stroke-linecap="round"></path>
                                <ellipse id="Oval-10" stroke="#494E52" stroke-width="2" fill="#42A5F5" cx="14.7836178" cy="14.8124221" rx="14.7836178" ry="14.8124221"></ellipse>
                                <g id="Group" transform="translate(1.343965, 6.732919)">
                                    <mask id="mask-8" fill="white">
                                        <use xlink:href="#path-7"></use>
                                    </mask>
                                    <g id="Mask"></g>
                                    <path d="M13.3338286,29.9507689 C5.32686337,29.9507689 -1.1640644,23.6377449 -1.1640644,15.8502351 C-1.1640644,8.0627253 5.32686337,1.74970128 13.3338286,1.74970128 C21.3407937,1.74970128 27.8317215,8.0627253 27.8317215,15.8502351 C27.8317215,23.6377449 21.3407937,29.9507689 13.3338286,29.9507689 Z M13.3338286,27.583526 C19.9965587,27.583526 25.3977687,22.3303527 25.3977687,15.8502351 C25.3977687,9.37011746 19.9965587,4.11694418 13.3338286,4.11694418 C6.6710984,4.11694418 1.26988843,9.37011746 1.26988843,15.8502351 C1.26988843,22.3303527 6.6710984,27.583526 13.3338286,27.583526 Z M13.3338286,24.0841235 C8.65822845,24.0841235 4.86790566,20.3976861 4.86790566,15.8502351 C4.86790566,11.3027841 8.65822845,7.61634674 13.3338286,7.61634674 C18.0094287,7.61634674 21.7997514,11.3027841 21.7997514,15.8502351 C21.7997514,20.3976861 18.0094287,24.0841235 13.3338286,24.0841235 Z M13.3338286,21.7168806 C16.6651936,21.7168806 19.3657986,19.0902939 19.3657986,15.8502351 C19.3657986,12.6101763 16.6651936,9.98358964 13.3338286,9.98358964 C10.0024635,9.98358964 7.30185849,12.6101763 7.30185849,15.8502351 C7.30185849,19.0902939 10.0024635,21.7168806 13.3338286,21.7168806 Z M13.3338286,18.217478 C11.9895935,18.217478 10.8998757,17.1576273 10.8998757,15.8502351 C10.8998757,14.5428429 11.9895935,13.4829922 13.3338286,13.4829922 C14.6780636,13.4829922 15.7677814,14.5428429 15.7677814,15.8502351 C15.7677814,17.1576273 14.6780636,18.217478 13.3338286,18.217478 Z" id="Combined-Shape" fill="#FFFFFF" mask="url(#mask-8)"></path>
                                </g>
                            </g>
                        </g>
                        <g id="Group-16" transform="translate(29.724897, 166.862393) rotate(615.000000) translate(-29.724897, -166.862393) translate(14.724897, 142.862393)">
                            <ellipse id="Oval-7-Copy-3" fill="#D3D3D3" style="mix-blend-mode: multiply;" cx="14.7836178" cy="45.1105582" rx="5.37586104" ry="2.01987574"></ellipse>
                            <g id="Group-15" transform="translate(0.000000, -0.000000)">
                                <path d="M14.7836178,26.2583846 L14.7836178,43.7639743" id="Line" stroke="#E5E5E5" stroke-width="2" stroke-linecap="round"></path>
                                <ellipse id="Oval-10" stroke="#494E52" stroke-width="2" fill="#42A5F5" cx="14.7836178" cy="14.8124221" rx="14.7836178" ry="14.8124221"></ellipse>
                                <g id="Group" transform="translate(1.343965, 6.732919)">
                                    <mask id="mask-10" fill="white">
                                        <use xlink:href="#path-9"></use>
                                    </mask>
                                    <g id="Mask"></g>
                                    <path d="M13.3338286,29.9507689 C5.32686337,29.9507689 -1.1640644,23.6377449 -1.1640644,15.8502351 C-1.1640644,8.0627253 5.32686337,1.74970128 13.3338286,1.74970128 C21.3407937,1.74970128 27.8317215,8.0627253 27.8317215,15.8502351 C27.8317215,23.6377449 21.3407937,29.9507689 13.3338286,29.9507689 Z M13.3338286,27.583526 C19.9965587,27.583526 25.3977687,22.3303527 25.3977687,15.8502351 C25.3977687,9.37011746 19.9965587,4.11694418 13.3338286,4.11694418 C6.6710984,4.11694418 1.26988843,9.37011746 1.26988843,15.8502351 C1.26988843,22.3303527 6.6710984,27.583526 13.3338286,27.583526 Z M13.3338286,24.0841235 C8.65822845,24.0841235 4.86790566,20.3976861 4.86790566,15.8502351 C4.86790566,11.3027841 8.65822845,7.61634674 13.3338286,7.61634674 C18.0094287,7.61634674 21.7997514,11.3027841 21.7997514,15.8502351 C21.7997514,20.3976861 18.0094287,24.0841235 13.3338286,24.0841235 Z M13.3338286,21.7168806 C16.6651936,21.7168806 19.3657986,19.0902939 19.3657986,15.8502351 C19.3657986,12.6101763 16.6651936,9.98358964 13.3338286,9.98358964 C10.0024635,9.98358964 7.30185849,12.6101763 7.30185849,15.8502351 C7.30185849,19.0902939 10.0024635,21.7168806 13.3338286,21.7168806 Z M13.3338286,18.217478 C11.9895935,18.217478 10.8998757,17.1576273 10.8998757,15.8502351 C10.8998757,14.5428429 11.9895935,13.4829922 13.3338286,13.4829922 C14.6780636,13.4829922 15.7677814,14.5428429 15.7677814,15.8502351 C15.7677814,17.1576273 14.6780636,18.217478 13.3338286,18.217478 Z" id="Combined-Shape" fill="#FFFFFF" mask="url(#mask-10)"></path>
                                </g>
                            </g>
                        </g>
                        <g id="Group-16" transform="translate(18.249209, 109.968065) rotate(277.000000) translate(-18.249209, -109.968065) translate(7.749209, 92.968065)">
                            <ellipse id="Oval-7-Copy-3" fill="#D3D3D3" style="mix-blend-mode: multiply;" cx="10.3694344" cy="31.6411706" rx="3.77070343" ry="1.41676883"></ellipse>
                            <g id="Group-15" transform="translate(0.000000, -0.000000)">
                                <path d="M10.3694344,18.4179948 L10.3694344,30.6966581" id="Line" stroke="#E5E5E5" stroke-width="2" stroke-linecap="round"></path>
                                <ellipse id="Oval-10" stroke="#494E52" stroke-width="2" fill="#42A5F5" cx="10.3694344" cy="10.3896381" rx="10.3694344" ry="10.3896381"></ellipse>
                                <g id="Group" transform="translate(0.942676, 4.722563)">
                                    <mask id="mask-12" fill="white">
                                        <use xlink:href="#path-11"></use>
                                    </mask>
                                    <g id="Mask"></g>
                                    <path d="M9.35253212,21.0078844 C3.73633579,21.0078844 -0.816490899,16.5798418 -0.816490899,11.1175745 C-0.816490899,5.65530726 3.73633579,1.22726472 9.35253212,1.22726472 C14.9687285,1.22726472 19.5215551,5.65530726 19.5215551,11.1175745 C19.5215551,16.5798418 14.9687285,21.0078844 9.35253212,21.0078844 Z M9.35253212,19.3474674 C14.0258634,19.3474674 17.8143469,15.6628188 17.8143469,11.1175745 C17.8143469,6.57233023 14.0258634,2.8876817 9.35253212,2.8876817 C4.67920086,2.8876817 0.890717345,6.57233023 0.890717345,11.1175745 C0.890717345,15.6628188 4.67920086,19.3474674 9.35253212,19.3474674 Z M9.35253212,16.8929379 C6.07300141,16.8929379 3.41441649,14.3072197 3.41441649,11.1175745 C3.41441649,7.92792941 6.07300141,5.34221114 9.35253212,5.34221114 C12.6320628,5.34221114 15.2906477,7.92792941 15.2906477,11.1175745 C15.2906477,14.3072197 12.6320628,16.8929379 9.35253212,16.8929379 Z M9.35253212,15.232521 C11.6891977,15.232521 13.5834395,13.3901967 13.5834395,11.1175745 C13.5834395,8.84495238 11.6891977,7.00262812 9.35253212,7.00262812 C7.01586649,7.00262812 5.12162473,8.84495238 5.12162473,11.1175745 C5.12162473,13.3901967 7.01586649,15.232521 9.35253212,15.232521 Z M9.35253212,12.7779915 C8.40966704,12.7779915 7.64532387,12.0345975 7.64532387,11.1175745 C7.64532387,10.2005516 8.40966704,9.45715756 9.35253212,9.45715756 C10.2953972,9.45715756 11.0597404,10.2005516 11.0597404,11.1175745 C11.0597404,12.0345975 10.2953972,12.7779915 9.35253212,12.7779915 Z" id="Combined-Shape" fill="#FFFFFF" mask="url(#mask-12)"></path>
                                </g>
                            </g>
                        </g>
                        <g id="Group-16" transform="translate(229.644520, 77.776824) rotate(58.000000) translate(-229.644520, -77.776824) translate(217.144520, 57.776824)">
                            <ellipse id="Oval-7-Copy-3" fill="#D3D3D3" style="mix-blend-mode: multiply;" cx="12.4762501" cy="38.0698832" rx="4.53681821" ry="1.70462164"></ellipse>
                            <g id="Group-15" transform="translate(0.000000, -0.000000)">
                                <path d="M12.4762501,22.1600813 L12.4762501,36.9334688" id="Line" stroke="#E6E6E6" stroke-width="2" stroke-linecap="round"></path>
                                <ellipse id="Oval-10" stroke="#494E52" stroke-width="2" fill="#42A5F5" cx="12.4762501" cy="12.5005587" rx="12.4762501" ry="12.5005587"></ellipse>
                                <g id="Group" transform="translate(1.134205, 5.682072)">
                                    <mask id="mask-14" fill="white">
                                        <use xlink:href="#path-13"></use>
                                    </mask>
                                    <g id="Mask"></g>
                                    <path d="M11.2527381,25.2761731 C4.49546791,25.2761731 -0.982381896,19.9484605 -0.982381896,13.376394 C-0.982381896,6.80432748 4.49546791,1.47661492 11.2527381,1.47661492 C18.0100083,1.47661492 23.4878581,6.80432748 23.4878581,13.376394 C23.4878581,19.9484605 18.0100083,25.2761731 11.2527381,25.2761731 Z M11.2527381,23.2783999 C16.875576,23.2783999 21.4337868,18.8451209 21.4337868,13.376394 C21.4337868,7.90766712 16.875576,3.47438805 11.2527381,3.47438805 C5.62990013,3.47438805 1.07168934,7.90766712 1.07168934,13.376394 C1.07168934,18.8451209 5.62990013,23.2783999 11.2527381,23.2783999 Z M11.2527381,20.3251701 C7.30688689,20.3251701 4.10814248,17.2140971 4.10814248,13.376394 C4.10814248,9.53869092 7.30688689,6.42761789 11.2527381,6.42761789 C15.1985893,6.42761789 18.3973337,9.53869092 18.3973337,13.376394 C18.3973337,17.2140971 15.1985893,20.3251701 11.2527381,20.3251701 Z M11.2527381,18.327397 C14.0641571,18.327397 16.3432625,16.1107574 16.3432625,13.376394 C16.3432625,10.6420306 14.0641571,8.42539102 11.2527381,8.42539102 C8.44131911,8.42539102 6.16221371,10.6420306 6.16221371,13.376394 C6.16221371,16.1107574 8.44131911,18.327397 11.2527381,18.327397 Z M11.2527381,15.3741671 C10.1183059,15.3741671 9.19866685,14.4797336 9.19866685,13.376394 C9.19866685,12.2730544 10.1183059,11.3786209 11.2527381,11.3786209 C12.3871703,11.3786209 13.3068093,12.2730544 13.3068093,13.376394 C13.3068093,14.4797336 12.3871703,15.3741671 11.2527381,15.3741671 Z" id="Combined-Shape" fill="#FFFFFF" mask="url(#mask-14)"></path>
                                </g>
                            </g>
                        </g>
                        <path d="M58.0795302,161.579059 C57.9741666,162.240477 57.919437,162.918806 57.919437,163.609935 C57.919437,170.676617 63.64245,176.402481 70.7021443,176.402481 L81.1060289,176.402481 C88.16942,176.402481 93.8887362,170.675063 93.8887362,163.609935 C93.8887362,162.284485 93.6874008,161.006205 93.313673,159.80403 C97.066671,157.574594 99.58236,153.479827 99.58236,148.797513 C99.58236,141.730831 93.8555581,136.004966 86.79119,136.004966 L58.6149196,136.004966 C51.5513924,136.004966 45.8237496,141.732385 45.8237496,148.797513 C45.8237496,155.684787 51.2634602,161.29846 58.0795302,161.579059 Z" id="Combined-Shape" fill="#E6E6E6" style="mix-blend-mode: multiply;"></path>
                        <path d="M54.0476344,157.539308 C53.9422708,158.200726 53.8875412,158.879054 53.8875412,159.570183 C53.8875412,166.636865 59.6105542,172.36273 66.6702485,172.36273 L77.0741331,172.36273 C84.1375243,172.36273 89.8568404,166.635312 89.8568404,159.570183 C89.8568404,158.244734 89.655505,156.966454 89.2817772,155.764278 C93.0347752,153.534842 95.5504642,149.440076 95.5504642,144.757761 C95.5504642,137.69108 89.8236624,131.965215 82.7592943,131.965215 L54.5830238,131.965215 C47.5194966,131.965215 41.7918538,137.692633 41.7918538,144.757761 C41.7918538,151.645035 47.2315644,157.258709 54.0476344,157.539308 Z" id="Combined-Shape" fill="#FAFAFA"></path>
                    </g>
                </g>
            </g>
        </g>
    </g>
</svg>