<?xml version="1.0" encoding="UTF-8"?>
<svg width="153px" height="86px" viewBox="0 0 153 86" version="1.1" xmlns="http://www.w3.org/2000/svg" xmlns:xlink="http://www.w3.org/1999/xlink">
    <!-- Generator: Sketch 42 (36781) - http://www.bohemiancoding.com/sketch -->
    <title>router</title>
    <desc>Created with Sketch.</desc>
    <defs></defs>
    <g id="Homepage" stroke="none" stroke-width="1" fill="none" fill-rule="evenodd">
        <g id="Homepage-1280" transform="translate(-561.000000, -1412.000000)">
            <g id="router" transform="translate(561.000000, 1412.000000)">
                <path d="M7,67 L150.000787,67 C151.657207,67 153,68.3340762 153,70.0061744 L153,82.9658547 C153,84.626119 151.647886,85.9720291 150.000787,85.9720291 L16.4950433,85.9720291 C11.2510757,85.9720291 7,81.7261476 7,76.4860146 L7,67 Z" id="Rectangle-10-Copy" fill="#A1B3BD"></path>
                <g id="Group-28" transform="translate(0.000000, 67.000000)" fill="#D0D8DC">
                    <rect id="Rectangle-10" x="0" y="0" width="110" height="18.9720291"></rect>
                </g>
                <g id="Group-28-Copy" transform="translate(63.000000, 0.000000)">
                    <g id="Group-32">
                        <path d="M0,2.00517692 C0,0.897748285 0.887729645,0 2,0 L2,0 C3.1045695,0 4,0.896468386 4,2.00517692 L4,67 L0,67 L0,2.00517692 Z" id="Rectangle-10" fill="#D0D8DC"></path>
                        <path d="M2,-1.0658141e-13 C2,-1.0658141e-13 2.99417078,-1.40456122e-15 3.44208821,0.934816401 C3.6140419,1.50864904 3.91770741,1.9483177 4,2.56960233 C4.08229259,3.19088696 4,5.43425663 4,5.43425663 L4,67 L2,67 L2,-1.0658141e-13 Z" id="Rectangle-10" fill="#A1B3BC"></path>
                    </g>
                    <g id="Group-32-Copy" transform="translate(54.000000, 0.000000)">
                        <path d="M0,2.00517692 C0,0.897748285 0.887729645,0 2,0 L2,0 C3.1045695,0 4,0.896468386 4,2.00517692 L4,67 L0,67 L0,2.00517692 Z" id="Rectangle-10" fill="#D0D8DC"></path>
                        <path d="M2,-1.0658141e-13 C2,-1.0658141e-13 2.99417078,-1.40456122e-15 3.44208821,0.934816401 C3.6140419,1.50864904 3.91770741,1.9483177 4,2.56960233 C4.08229259,3.19088696 4,5.43425663 4,5.43425663 L4,67 L2,67 L2,-1.0658141e-13 Z" id="Rectangle-10" fill="#A1B3BC"></path>
                    </g>
                </g>
                <circle id="Oval-6" fill="#25AAA0" cx="6.5" cy="73.5" r="2.5"></circle>
                <circle id="Oval-6-Copy" fill="#F8BC1C" cx="14.5" cy="73.5" r="2.5"></circle>
                <circle id="Oval-6-Copy-2" fill="#F27D7D" cx="22.5" cy="73.5" r="2.5"></circle>
                <circle id="Oval-6-Copy-3" fill="#25AAA0" cx="30.5" cy="73.5" r="2.5"></circle>
                <path d="M43.5,80.5 L71.5,80.5" id="Line" stroke="#A1B3BC" stroke-width="3" stroke-linecap="round"></path>
                <path d="M104.5,80.5 L104.5,71.5" id="Line-Copy-6" stroke="#A1B3BC" stroke-width="3" stroke-linecap="round"></path>
                <path d="M98.5,80.5 L98.5,71.5" id="Line-Copy-7" stroke="#A1B3BC" stroke-width="3" stroke-linecap="round"></path>
            </g>
        </g>
    </g>
</svg>