<?xml version="1.0" encoding="UTF-8"?>
<svg width="83px" height="83px" viewBox="0 0 83 83" version="1.1" xmlns="http://www.w3.org/2000/svg" xmlns:xlink="http://www.w3.org/1999/xlink">
    <!-- Generator: Sketch 42 (36781) - http://www.bohemiancoding.com/sketch -->
    <title>mobile_app</title>
    <desc>Created with Sketch.</desc>
    <defs></defs>
    <g id="Become-a-Host-(Consumer)" stroke="none" stroke-width="1" fill="none" fill-rule="evenodd">
        <g id="Become-a-host-1280-(CONSUMER)" transform="translate(-335.000000, -1275.000000)">
            <g id="mobile_app" transform="translate(336.000000, 1276.000000)">
                <circle id="Oval" stroke="#D0D8DC" cx="40.5" cy="40.5" r="40.5"></circle>
                <path d="M52.4285714,13 L29.5714286,13 C27.0571429,13 25,15.0625 25,17.5833333 L25,63.4166667 C25,65.9375 27.0571429,68 29.5714286,68 L52.4285714,68 C54.9428571,68 57,65.9375 57,63.4166667 L57,17.5833333 C57,15.0625 54.9428571,13 52.4285714,13 Z M55.4761905,63.4166667 C55.4761905,65.0972222 54.1047619,66.4722222 52.4285714,66.4722222 L29.5714286,66.4722222 C27.8952381,66.4722222 26.5238095,65.0972222 26.5238095,63.4166667 L26.5238095,17.5833333 C26.5238095,15.9027778 27.8952381,14.5277778 29.5714286,14.5277778 L52.4285714,14.5277778 C54.1047619,14.5277778 55.4761905,15.9027778 55.4761905,17.5833333 L55.4761905,63.4166667 Z M43.2857143,16.0555556 L38.7142857,16.0555556 L38.7142857,17.5833333 L43.2857143,17.5833333 L43.2857143,16.0555556 Z M41,58.8333333 C39.3238095,58.8333333 37.952381,60.2083333 37.952381,61.8888889 C37.952381,63.5694444 39.3238095,64.9444444 41,64.9444444 C42.6761905,64.9444444 44.047619,63.5694444 44.047619,61.8888889 C44.047619,60.2083333 42.6761905,58.8333333 41,58.8333333 Z M41,63.4166667 C40.1619048,63.4166667 39.4761905,62.7291667 39.4761905,61.8888889 C39.4761905,61.0486111 40.1619048,60.3611111 41,60.3611111 C41.8380952,60.3611111 42.5238095,61.0486111 42.5238095,61.8888889 C42.5238095,62.7291667 41.8380952,63.4166667 41,63.4166667 Z M42.6,47.2986111 L43.6666667,46.2291667 C42.9809524,45.4652778 41.9904762,45.0833333 41,45.0833333 C40.0095238,45.0833333 39.0190476,45.4652778 38.3333333,46.2291667 L39.4,47.2986111 C40.2380952,46.3819444 41.7619048,46.3819444 42.6,47.2986111 Z M33.9904762,41.875 L35.0571429,42.9444444 C38.3333333,39.6597222 43.6666667,39.6597222 46.9428571,42.9444444 L48.0095238,41.875 C44.1238095,37.9791667 37.8761905,37.9791667 33.9904762,41.875 Z M29.7238095,37.5972222 L30.7904762,38.6666667 C33.5333333,35.9166667 37.1142857,34.3888889 41,34.3888889 C44.8857143,34.3888889 48.4666667,35.9166667 51.2095238,38.6666667 L52.2761905,37.5972222 C46.1047619,31.3333333 35.8952381,31.3333333 29.7238095,37.5972222 Z" id="Wifi" fill="#494E52"></path>
                <circle id="Oval" stroke="#D0D8DC" stroke-width="2" cx="40.5" cy="40.5" r="40.5"></circle>
            </g>
        </g>
    </g>
</svg>