<?xml version="1.0" encoding="UTF-8"?>
<svg width="38px" height="38px" viewBox="0 0 38 38" version="1.1" xmlns="http://www.w3.org/2000/svg" xmlns:xlink="http://www.w3.org/1999/xlink">
    <!-- Generator: Sketch 43.2 (39069) - http://www.bohemiancoding.com/sketch -->
    <title>safe</title>
    <desc>Created with Sketch.</desc>
    <defs></defs>
    <g id="BecomeAHost" stroke="none" stroke-width="1" fill="none" fill-rule="evenodd" stroke-linecap="round">
        <g id="Become-a-host-1280" transform="translate(-92.000000, -2683.000000)" stroke="#FFFFFF" stroke-width="2">
            <g id="safe" transform="translate(93.000000, 2684.000000)">
                <path d="M34.0002927,-1.05179023e-16 C35.1047006,-1.05179023e-16 36,0.889892578 36,1.99970728 L36,34.0002927 C36,35.1047006 35.1101074,36 34.0002927,36 L1.99970728,36 C0.895299447,36 3.06132159e-09,35.1101074 2.96455459e-09,34.0002927 L1.7435854e-10,1.99970728 C7.80629772e-11,0.895299444 0.889892578,-1.05179023e-16 1.99970728,-1.05179023e-16 L34.0002927,-1.05179023e-16 Z" id="Rectangle-34-Copy" stroke-linejoin="round"></path>
                <polygon id="Rectangle-34-Copy-2" stroke-linejoin="round" points="32 4 32 32 4 32 4 4"></polygon>
                <circle id="Oval-41" cx="11" cy="18" r="3"></circle>
                <path d="M32,13 L28,13" id="Path-148"></path>
                <path d="M32,23 L27.9688711,23" id="Path-148-Copy"></path>
            </g>
        </g>
    </g>
</svg>