<?xml version="1.0" encoding="utf-8"?>
<!-- Generator: Adobe Illustrator 19.2.1, SVG Export Plug-In . SVG Version: 6.00 Build 0)  -->
<svg version="1.1" id="Layer_1" xmlns="http://www.w3.org/2000/svg" xmlns:xlink="http://www.w3.org/1999/xlink" x="0px" y="0px"
	 viewBox="0 0 29.8 21" style="enable-background:new 0 0 29.8 21;" xml:space="preserve">
<style type="text/css">
	.st0{fill:#FFFFFF;}
	.st1{filter:url(#filter-2);}
</style>
<filter  filterUnits="objectBoundingBox" height="200%" id="filter-2" width="200%" x="-50%" y="-50%">
	<feGaussianBlur  in="SourceAlpha" result="shadowBlurInner1" stdDeviation="0.25"></feGaussianBlur>
	<feOffset  dx="0" dy="0.5" in="shadowBlurInner1" result="shadowOffsetInner1"></feOffset>
	<feComposite  in="shadowOffsetInner1" in2="SourceAlpha" k2="-1" k3="1" operator="arithmetic" result="shadowInnerInner1">
		</feComposite>
	
		<feColorMatrix  in="shadowInnerInner1" type="matrix" values="0 0 0 0 0.408349277   0 0 0 0 0.408349277   0 0 0 0 0.408349277  0 0 0 0.5 0">
		</feColorMatrix>
</filter>
<title>Group 4</title>
<desc>Created with Sketch.</desc>
<g id="Nav-Bar-Prototype-_x28_For-Principle_x29_">
	<g id="Tablet-9_x2033_-Portrait" transform="translate(-35.000000, -22.000000)">
		<g id="Group-3">
			<g id="Group-4" transform="translate(35.000000, 22.000000)">
				<path id="source" class="st0" d="M52.3,9c-0.6-0.9-1.5-1.4-2.6-1.4c-0.4,0-0.9,0.1-1.3,0.3c-0.4,0.2-0.6,0.6-0.6,1.1
					c0,0.4,0.2,0.7,0.5,0.9c0.4,0.2,0.8,0.3,1.3,0.5c0.5,0.1,1.1,0.3,1.7,0.4c0.6,0.1,1.2,0.4,1.7,0.6c0.5,0.3,1,0.7,1.3,1.2
					c0.4,0.5,0.5,1.2,0.5,2c0,0.8-0.2,1.5-0.5,2c-0.3,0.5-0.8,1-1.3,1.3c-0.5,0.3-1.2,0.6-1.8,0.7c-0.7,0.1-1.4,0.2-2.1,0.2
					c-1,0-2-0.1-2.9-0.4c-0.9-0.3-1.6-0.8-2.3-1.6l2.2-2.1c0.4,0.5,0.9,0.9,1.4,1.2c0.5,0.3,1.1,0.5,1.8,0.5c0.2,0,0.5,0,0.8-0.1
					c0.3-0.1,0.5-0.1,0.7-0.3c0.2-0.1,0.4-0.3,0.5-0.5c0.1-0.2,0.2-0.4,0.2-0.7c0-0.5-0.2-0.8-0.5-1c-0.4-0.2-0.8-0.4-1.3-0.5
					c-0.5-0.1-1.1-0.3-1.7-0.4c-0.6-0.1-1.2-0.3-1.7-0.6s-1-0.6-1.3-1.1c-0.4-0.5-0.5-1.1-0.5-2c0-0.7,0.2-1.4,0.5-1.9
					s0.7-1,1.2-1.3c0.5-0.4,1.1-0.6,1.7-0.8c0.6-0.2,1.3-0.2,2-0.2c0.9,0,1.8,0.2,2.6,0.5S54,6.3,54.5,7L52.3,9z M57.3,12
					c0-1.1,0.2-2,0.6-2.9c0.4-0.9,0.9-1.6,1.5-2.2c0.6-0.6,1.4-1.1,2.3-1.4C62.6,5.2,63.6,5,64.6,5s1.9,0.2,2.8,0.5s1.7,0.8,2.3,1.4
					c0.6,0.6,1.2,1.3,1.5,2.2c0.4,0.9,0.6,1.8,0.6,2.9s-0.2,2-0.6,2.9s-0.9,1.6-1.5,2.2c-0.6,0.6-1.4,1.1-2.3,1.4s-1.8,0.5-2.8,0.5
					s-1.9-0.2-2.8-0.5c-0.9-0.3-1.7-0.8-2.3-1.4c-0.6-0.6-1.2-1.3-1.5-2.2C57.5,14,57.3,13,57.3,12z M60.6,12c0,0.5,0.1,1,0.3,1.5
					c0.2,0.5,0.4,0.9,0.8,1.3c0.3,0.4,0.8,0.7,1.2,0.9c0.5,0.2,1,0.3,1.6,0.3c0.6,0,1.2-0.1,1.6-0.3s0.9-0.5,1.2-0.9
					c0.3-0.4,0.6-0.8,0.8-1.3c0.2-0.5,0.3-1,0.3-1.5s-0.1-1-0.3-1.5C68,10,67.8,9.6,67.4,9.2c-0.3-0.4-0.8-0.7-1.2-0.9
					S65.2,8,64.6,8c-0.6,0-1.2,0.1-1.6,0.3c-0.5,0.2-0.9,0.5-1.2,0.9c-0.3,0.4-0.6,0.8-0.8,1.3C60.7,11,60.6,11.4,60.6,12z
					 M87.5,18.6h-3.2v-2.1h-0.1c-0.3,0.7-0.8,1.2-1.4,1.7s-1.5,0.7-2.6,0.7c-0.9,0-1.6-0.1-2.3-0.4c-0.6-0.3-1.1-0.7-1.5-1.2
					c-0.4-0.5-0.7-1-0.8-1.7c-0.2-0.6-0.3-1.3-0.3-2V5.3h3.3V12c0,0.4,0,0.8,0.1,1.2c0,0.5,0.1,0.9,0.3,1.3c0.2,0.4,0.4,0.7,0.7,1
					c0.3,0.3,0.8,0.4,1.4,0.4c0.6,0,1-0.1,1.4-0.3c0.4-0.2,0.7-0.4,0.9-0.7c0.3-0.3,0.4-0.7,0.5-1.1c0.1-0.4,0.2-0.8,0.2-1.3V5.3
					h3.3V18.6z M91.7,5.3h3.3v2.1h0.1c0.4-0.8,0.9-1.4,1.6-1.8S98.2,5,99.1,5c0.2,0,0.4,0,0.6,0.1c0.2,0,0.4,0.1,0.6,0.1v3.2
					c-0.3-0.1-0.6-0.1-0.8-0.2c-0.3,0-0.5-0.1-0.8-0.1c-0.8,0-1.4,0.1-1.9,0.4c-0.5,0.3-0.8,0.6-1.1,1c-0.3,0.4-0.4,0.7-0.5,1.1
					c-0.1,0.4-0.1,0.6-0.1,0.8v7.1h-3.3V5.3z M111.6,9.3c-0.4-0.4-0.8-0.7-1.2-1C110,8.1,109.5,8,109.1,8c-0.6,0-1.2,0.1-1.6,0.3
					s-0.9,0.5-1.2,0.9c-0.3,0.4-0.6,0.8-0.8,1.3c-0.2,0.5-0.3,1-0.3,1.5s0.1,1,0.3,1.5c0.2,0.5,0.4,0.9,0.8,1.3
					c0.3,0.4,0.8,0.7,1.2,0.9s1,0.3,1.6,0.3c0.5,0,1-0.1,1.4-0.3c0.4-0.2,0.8-0.5,1.1-0.9l2.2,2.4c-0.3,0.3-0.7,0.6-1.2,0.9
					s-0.9,0.4-1.3,0.6c-0.4,0.1-0.9,0.3-1.3,0.3c-0.4,0.1-0.8,0.1-1.1,0.1c-1,0-1.9-0.2-2.8-0.5s-1.7-0.8-2.3-1.4
					c-0.6-0.6-1.2-1.3-1.5-2.2s-0.6-1.8-0.6-2.9s0.2-2,0.6-2.9c0.4-0.9,0.9-1.6,1.5-2.2c0.6-0.6,1.4-1.1,2.3-1.4s1.8-0.5,2.8-0.5
					c0.9,0,1.7,0.2,2.6,0.5c0.9,0.3,1.6,0.8,2.3,1.5L111.6,9.3z M119,13.1c0.1,1,0.5,1.8,1.2,2.3c0.7,0.6,1.5,0.8,2.4,0.8
					c0.8,0,1.5-0.2,2.1-0.5s1.1-0.8,1.5-1.3l2.4,1.8c-0.8,1-1.6,1.6-2.6,2c-1,0.4-2,0.6-3,0.6c-1,0-1.9-0.2-2.8-0.5
					s-1.7-0.8-2.3-1.4c-0.6-0.6-1.2-1.3-1.5-2.2s-0.6-1.8-0.6-2.9s0.2-2,0.6-2.9c0.4-0.9,0.9-1.6,1.5-2.2c0.6-0.6,1.4-1.1,2.3-1.4
					s1.8-0.5,2.8-0.5c0.9,0,1.8,0.2,2.5,0.5c0.8,0.3,1.4,0.8,2,1.4c0.5,0.6,1,1.4,1.3,2.3s0.5,1.9,0.5,3.1v0.9H119z M125.8,10.6
					c0-1-0.3-1.7-0.9-2.3s-1.4-0.8-2.5-0.8c-1,0-1.8,0.3-2.4,0.9c-0.6,0.6-0.9,1.3-1.1,2.3H125.8z"/>
				<g id="Combined-Shape">
					<g>
						<path id="path-1" class="st0" d="M19,13.4c-0.3-0.8-1.1-1.4-2.1-1.4c-0.4,0-0.8,0.1-1.2,0.3c-0.3,0.1-0.6,0.2-1,0.2
							s-0.7-0.1-1-0.2c-0.3-0.2-0.7-0.3-1.2-0.3c-1,0-1.8,0.6-2.1,1.5c0,0.1-0.1,0.2-0.1,0.3c0,0.1,0,0.1,0,0.2h0
							c-0.3,0.8-1.1,1.3-2,1.3c-1.2,0-2.2-1-2.2-2.2s1-2.2,2.2-2.2c0.4,0,0.8,0.1,1.2,0.3c0.3,0.1,0.6,0.2,1,0.2
							c1.1,0,2-0.8,2.2-1.8c0.3-0.9,1.1-1.5,2.1-1.5s1.8,0.6,2.1,1.5c0.2,1,1.1,1.8,2.2,1.8c0.3,0,0.7-0.1,1-0.2
							c0.3-0.2,0.7-0.3,1.2-0.3c1.2,0,2.2,1,2.2,2.2s-1,2.2-2.2,2.2c-0.9,0-1.7-0.5-2-1.3h0c0,0,0,0,0-0.1
							C19.1,13.7,19,13.5,19,13.4z M25.4,8L25.4,8C25.4,7.9,25.4,7.9,25.4,8c0-1.3-1-2.3-2.2-2.3c-0.3,0-0.5,0-0.7,0.1v0
							c-0.2,0.1-0.4,0.1-0.6,0.1c-0.8,0-1.5-0.4-1.9-1.1l0,0c0,0,0,0,0,0c-0.1-0.1-0.1-0.2-0.2-0.4c-0.6-1-1.8-1.4-2.9-0.9
							c-0.3,0.1-0.5,0.3-0.7,0.5c-0.4,0.3-0.8,0.4-1.3,0.4c-0.6,0-1.1-0.2-1.5-0.5l0,0c-0.2-0.1-0.3-0.3-0.5-0.3
							c-1.1-0.5-2.4,0-2.9,1.1c0,0,0,0.1,0,0.1C9.6,5.4,8.8,5.9,8,5.9c-0.2,0-0.4,0-0.6-0.1v0C7.1,5.7,6.9,5.7,6.6,5.7
							c-1.2,0-2.2,1-2.2,2.2c0,0.1,0,0.1,0,0.2h0c-0.1,1.2-1,2.1-2.2,2.1C1,10.2,0,9.2,0,8s1-2.2,2.2-2.2c0.2,0,0.4,0,0.6,0.1v0
							C3,5.9,3.3,5.9,3.5,5.9c1.2,0,2.2-1,2.2-2.2c0,0,0,0,0-0.1h0c0-1.2,1-2.2,2.2-2.2c0.5,0,1,0.2,1.3,0.4
							c0.2,0.2,0.4,0.4,0.7,0.5c1.1,0.5,2.4,0,2.9-1.1c0-0.1,0.1-0.1,0.1-0.2l0,0C13.4,0.4,14.1,0,14.9,0c0.8,0,1.5,0.4,1.9,1.1
							c0,0.1,0.1,0.1,0.1,0.2c0.5,1.1,1.8,1.6,2.9,1.1c0.1-0.1,0.3-0.1,0.4-0.2c0.4-0.4,1-0.7,1.6-0.7C23,1.5,24,2.4,24,3.5h0
							c0,0.1,0,0.1,0,0.2c0,1.2,1,2.2,2.2,2.2c0.3,0,0.5,0,0.7-0.1v0c0.2-0.1,0.4-0.1,0.6-0.1c1.2,0,2.2,1,2.2,2.2s-1,2.2-2.2,2.2
							S25.4,9.2,25.4,8z M14.9,21c-1.5,0-2.7-1.2-2.7-2.7c0-1.5,1.2-2.7,2.7-2.7s2.7,1.2,2.7,2.7C17.5,19.8,16.3,21,14.9,21z"/>
					</g>
					<g class="st1">
						<path id="path-1_2_" d="M19,13.4c-0.3-0.8-1.1-1.4-2.1-1.4c-0.4,0-0.8,0.1-1.2,0.3c-0.3,0.1-0.6,0.2-1,0.2s-0.7-0.1-1-0.2
							c-0.3-0.2-0.7-0.3-1.2-0.3c-1,0-1.8,0.6-2.1,1.5c0,0.1-0.1,0.2-0.1,0.3c0,0.1,0,0.1,0,0.2h0c-0.3,0.8-1.1,1.3-2,1.3
							c-1.2,0-2.2-1-2.2-2.2s1-2.2,2.2-2.2c0.4,0,0.8,0.1,1.2,0.3c0.3,0.1,0.6,0.2,1,0.2c1.1,0,2-0.8,2.2-1.8
							c0.3-0.9,1.1-1.5,2.1-1.5s1.8,0.6,2.1,1.5c0.2,1,1.1,1.8,2.2,1.8c0.3,0,0.7-0.1,1-0.2c0.3-0.2,0.7-0.3,1.2-0.3
							c1.2,0,2.2,1,2.2,2.2s-1,2.2-2.2,2.2c-0.9,0-1.7-0.5-2-1.3h0c0,0,0,0,0-0.1C19.1,13.7,19,13.5,19,13.4z M25.4,8L25.4,8
							C25.4,7.9,25.4,7.9,25.4,8c0-1.3-1-2.3-2.2-2.3c-0.3,0-0.5,0-0.7,0.1v0c-0.2,0.1-0.4,0.1-0.6,0.1c-0.8,0-1.5-0.4-1.9-1.1l0,0
							c0,0,0,0,0,0c-0.1-0.1-0.1-0.2-0.2-0.4c-0.6-1-1.8-1.4-2.9-0.9c-0.3,0.1-0.5,0.3-0.7,0.5c-0.4,0.3-0.8,0.4-1.3,0.4
							c-0.6,0-1.1-0.2-1.5-0.5l0,0c-0.2-0.1-0.3-0.3-0.5-0.3c-1.1-0.5-2.4,0-2.9,1.1c0,0,0,0.1,0,0.1C9.6,5.4,8.8,5.9,8,5.9
							c-0.2,0-0.4,0-0.6-0.1v0C7.1,5.7,6.9,5.7,6.6,5.7c-1.2,0-2.2,1-2.2,2.2c0,0.1,0,0.1,0,0.2h0c-0.1,1.2-1,2.1-2.2,2.1
							C1,10.2,0,9.2,0,8s1-2.2,2.2-2.2c0.2,0,0.4,0,0.6,0.1v0C3,5.9,3.3,5.9,3.5,5.9c1.2,0,2.2-1,2.2-2.2c0,0,0,0,0-0.1h0
							c0-1.2,1-2.2,2.2-2.2c0.5,0,1,0.2,1.3,0.4c0.2,0.2,0.4,0.4,0.7,0.5c1.1,0.5,2.4,0,2.9-1.1c0-0.1,0.1-0.1,0.1-0.2l0,0
							C13.4,0.4,14.1,0,14.9,0c0.8,0,1.5,0.4,1.9,1.1c0,0.1,0.1,0.1,0.1,0.2c0.5,1.1,1.8,1.6,2.9,1.1c0.1-0.1,0.3-0.1,0.4-0.2
							c0.4-0.4,1-0.7,1.6-0.7C23,1.5,24,2.4,24,3.5h0c0,0.1,0,0.1,0,0.2c0,1.2,1,2.2,2.2,2.2c0.3,0,0.5,0,0.7-0.1v0
							c0.2-0.1,0.4-0.1,0.6-0.1c1.2,0,2.2,1,2.2,2.2s-1,2.2-2.2,2.2S25.4,9.2,25.4,8z M14.9,21c-1.5,0-2.7-1.2-2.7-2.7
							c0-1.5,1.2-2.7,2.7-2.7s2.7,1.2,2.7,2.7C17.5,19.8,16.3,21,14.9,21z"/>
					</g>
				</g>
			</g>
		</g>
	</g>
</g>
</svg>
