<?xml version="1.0" encoding="UTF-8"?>
<svg width="83px" height="83px" viewBox="0 0 83 83" version="1.1" xmlns="http://www.w3.org/2000/svg" xmlns:xlink="http://www.w3.org/1999/xlink">
    <!-- Generator: Sketch 42 (36781) - http://www.bohemiancoding.com/sketch -->
    <title>wifi_hotspots</title>
    <desc>Created with Sketch.</desc>
    <defs>
        <polygon id="path-1" points="19.9583651 0.00418102423 9.93975972 9.90214994 -1.0658141e-14 0.00418102423"></polygon>
        <path d="M10.3138666,11.8181818 L8.22857143,11.8181818 L8.22857143,11.8299382 C3.6440847,12.0663077 0,15.8372838 0,20.4545455 C0,25.0718071 3.6440847,28.8427832 8.22857143,29.0791527 L8.22857143,29.0909091 L41.1428571,29.0909091 L41.1428571,29.0027821 C46.301744,28.3345905 50.2857143,23.9480867 50.2857143,18.6363636 C50.2857143,12.8624776 45.5783082,8.18181818 39.7714286,8.18181818 C39.1402516,8.18181818 38.5220643,8.23711801 37.9215,8.34311075 C35.5801799,3.41200095 30.5336817,0 24.6857143,0 C17.5440751,0 11.5977247,5.0885618 10.3138666,11.8181818 Z" id="path-3"></path>
        <mask id="mask-4" maskContentUnits="userSpaceOnUse" maskUnits="objectBoundingBox" x="0" y="0" width="50.2857143" height="29.0909091" fill="white">
            <use xlink:href="#path-3"></use>
        </mask>
        <mask id="mask-5" maskContentUnits="userSpaceOnUse" maskUnits="objectBoundingBox" x="-1" y="-1" width="52.2857143" height="31.0909091">
            <rect x="-1" y="-1" width="52.2857143" height="31.0909091" fill="white"></rect>
            <use xlink:href="#path-3" fill="black"></use>
        </mask>
        <polygon id="path-6" points="25.5281414 0.00535171101 12.7136462 12.6747519 -1.42108547e-14 0.00535171101"></polygon>
    </defs>
    <g id="Become-a-Host-(Consumer)" stroke="none" stroke-width="1" fill="none" fill-rule="evenodd">
        <g id="Become-a-host-1280-(CONSUMER)" transform="translate(-335.000000, -1033.000000)">
            <g id="wifi_hotspots" transform="translate(336.000000, 1034.000000)">
                <g id="Group-4" stroke-width="2" stroke="#D0D8DC">
                    <circle id="Oval" cx="40.5" cy="40.5" r="40.5"></circle>
                </g>
                <g id="Group-5" transform="translate(8.000000, 20.000000)">
                    <g id="Group-2" transform="translate(24.685714, 0.000000)">
                        <path d="M8.06356841,9.23295455 L6.43324675,9.23295455 L6.43324675,9.24213925 C2.84901168,9.42680293 0,12.3728779 0,15.9801136 C0,19.5873493 2.84901168,22.5334243 6.43324675,22.718088 L6.43324675,22.7272727 L32.1662338,22.7272727 L32.1662338,22.6584235 C36.1995453,22.1363988 39.3142857,18.7094427 39.3142857,14.5596591 C39.3142857,10.0488106 35.6339501,6.39204545 31.094026,6.39204545 C30.6005603,6.39204545 30.1172503,6.43524844 29.6477182,6.51805528 C27.8172315,2.66562575 23.8717875,0 19.2997403,0 C13.7162769,0 9.06731205,3.9754389 8.06356841,9.23295455 Z" id="Combined-Shape" fill="#494E52"></path>
                        <g id="Group" transform="translate(10.007273, 6.505682)">
                            <mask id="mask-2" fill="white">
                                <use xlink:href="#path-1"></use>
                            </mask>
                            <g id="Mask"></g>
                            <path d="M10,18 C5.581722,18 2,14.418278 2,10 C2,5.581722 5.581722,2 10,2 C14.418278,2 18,5.581722 18,10 C18,14.418278 14.418278,18 10,18 Z M10,16.6569343 C13.6765233,16.6569343 16.6569343,13.6765233 16.6569343,10 C16.6569343,6.3234767 13.6765233,3.34306569 10,3.34306569 C6.3234767,3.34306569 3.34306569,6.3234767 3.34306569,10 C3.34306569,13.6765233 6.3234767,16.6569343 10,16.6569343 Z M10,14.6715328 C7.41998365,14.6715328 5.32846715,12.5800163 5.32846715,10 C5.32846715,7.41998365 7.41998365,5.32846715 10,5.32846715 C12.5800163,5.32846715 14.6715328,7.41998365 14.6715328,10 C14.6715328,12.5800163 12.5800163,14.6715328 10,14.6715328 Z M10,13.3284672 C11.8382616,13.3284672 13.3284672,11.8382616 13.3284672,10 C13.3284672,8.16173835 11.8382616,6.67153285 10,6.67153285 C8.16173835,6.67153285 6.67153285,8.16173835 6.67153285,10 C6.67153285,11.8382616 8.16173835,13.3284672 10,13.3284672 Z M10,11.3430657 C9.2582453,11.3430657 8.65693431,10.7417547 8.65693431,10 C8.65693431,9.2582453 9.2582453,8.65693431 10,8.65693431 C10.7417547,8.65693431 11.3430657,9.2582453 11.3430657,10 C11.3430657,10.7417547 10.7417547,11.3430657 10,11.3430657 Z" id="Combined-Shape" fill="#F9FAFE" mask="url(#mask-2)"></path>
                        </g>
                    </g>
                    <g id="Group-2" transform="translate(0.000000, 10.909091)">
                        <g id="Combined-Shape">
                            <use stroke="#494E52" mask="url(#mask-4)" stroke-width="4" fill="#FFFFFF" fill-rule="evenodd" xlink:href="#path-3"></use>
                            <use stroke="#FFFFFF" mask="url(#mask-5)" stroke-width="2" xlink:href="#path-3"></use>
                        </g>
                        <g id="Group" transform="translate(11.800000, 9.818182)">
                            <mask id="mask-7" fill="white">
                                <use xlink:href="#path-6"></use>
                            </mask>
                            <g id="Mask"></g>
                            <path d="M13,23 C6.92486775,23 2,18.0751322 2,12 C2,5.92486775 6.92486775,1 13,1 C19.0751322,1 24,5.92486775 24,12 C24,18.0751322 19.0751322,23 13,23 Z M13,21.1532847 C18.0552195,21.1532847 22.1532847,17.0552195 22.1532847,12 C22.1532847,6.94478047 18.0552195,2.84671533 13,2.84671533 C7.94478047,2.84671533 3.84671533,6.94478047 3.84671533,12 C3.84671533,17.0552195 7.94478047,21.1532847 13,21.1532847 Z M13,18.4233577 C9.45247752,18.4233577 6.57664234,15.5475225 6.57664234,12 C6.57664234,8.45247752 9.45247752,5.57664234 13,5.57664234 C16.5475225,5.57664234 19.4233577,8.45247752 19.4233577,12 C19.4233577,15.5475225 16.5475225,18.4233577 13,18.4233577 Z M13,16.5766423 C15.5276098,16.5766423 17.5766423,14.5276098 17.5766423,12 C17.5766423,9.47239023 15.5276098,7.42335766 13,7.42335766 C10.4723902,7.42335766 8.42335766,9.47239023 8.42335766,12 C8.42335766,14.5276098 10.4723902,16.5766423 13,16.5766423 Z M13,13.8467153 C11.9800873,13.8467153 11.1532847,13.0199127 11.1532847,12 C11.1532847,10.9800873 11.9800873,10.1532847 13,10.1532847 C14.0199127,10.1532847 14.8467153,10.9800873 14.8467153,12 C14.8467153,13.0199127 14.0199127,13.8467153 13,13.8467153 Z" id="Combined-Shape" fill="#494E52" mask="url(#mask-7)"></path>
                        </g>
                    </g>
                </g>
            </g>
        </g>
    </g>
</svg>